<?xml version="1.0" encoding="utf-8"?>
<!-- Generator: Adobe Illustrator 24.2.0, SVG Export Plug-In . SVG Version: 6.00 Build 0)  -->
<svg version="1.1" id="Capa_1" xmlns="http://www.w3.org/2000/svg" xmlns:xlink="http://www.w3.org/1999/xlink" x="0px" y="0px"
	 viewBox="0 0 512 512" style="enable-background:new 0 0 512 512;" xml:space="preserve">
<style type="text/css">
	.st0{fill:#9D5900;}
	.st1{fill:#FFFFFF;}
</style>
<g>
	<g>
		<path class="st0" d="M474,377.8l-63.6-63.7c-17.6-17.6-46.1-17.6-63.7,0L317.8,343c-13.3,13.3-34.9,13.3-48.2,0l0,0L169,242.8
			c-13.3-13.3-13.3-34.9,0-48.2l28.9-28.9c17.6-17.6,17.6-46.1,0-63.6l-63.7-63.7c-17.6-17.6-46.1-17.6-63.6,0
			c-0.1,0.1-21.2,21.2-21.2,21.2c-61.9,57.1-69,164.4-2,231.4l173.9,173.6c60.6,60.6,163.1,66.5,231.5-1.9l0,0l21.2-21.2
			C491.6,423.9,491.6,395.3,474,377.8z M91.8,59.5c5.9-5.9,15.4-5.9,21.2,0l63.6,63.7c5.9,5.9,5.9,15.4,0,21.2L166.1,155L81.2,70.1
			L91.8,59.5z M452.8,420.2l-10.6,10.6L357.4,346l10.6-10.6c5.9-5.9,15.4-5.9,21.2,0l63.7,63.6C458.7,404.8,458.7,414.4,452.8,420.2
			z"/>
	</g>
</g>
<g>
	<g>
		<path class="st0" d="M512,45v120c0,24.8-20.2,45-45,45h-83.8l-55.6,55.6c-9.4,9.4-25.6,2.7-25.6-10.6v-45h-15
			c-24.8,0-45-20.2-45-45V45c0-24.8,20.2-45,45-45h180C491.8,0,512,20.2,512,45z"/>
	</g>
</g>
<g>
	<g>
		<path class="st1" d="M423.4,49.2c0,8.3-6.7,15-15,15h-120c-8.3,0-15-6.7-15-15s6.7-15,15-15h120C416.7,34.2,423.4,41,423.4,49.2z"
			/>
	</g>
</g>
<g>
	<g>
		<path class="st1" d="M367.7,95.4c0,8.3-6.7,15-15,15h-60c-8.3,0-15-6.7-15-15s6.7-15,15-15h60C361,80.4,367.7,87.1,367.7,95.4z"/>
	</g>
</g>
</svg>
