<?xml version="1.0" encoding="utf-8"?>
<!-- Generator: Adobe Illustrator 24.2.0, SVG Export Plug-In . SVG Version: 6.00 Build 0)  -->
<svg version="1.1" id="Capa_1" xmlns="http://www.w3.org/2000/svg" xmlns:xlink="http://www.w3.org/1999/xlink" x="0px" y="0px"
	 viewBox="0 0 355 282.5" style="enable-background:new 0 0 355 282.5;cursor: pointer;" xml:space="preserve">
<g>
	<g>
		<path d="M177.5,57L50.9,161.4c0,0.1,0,0.4-0.1,0.7c-0.1,0.3-0.1,0.5-0.1,0.7v105.7c0,3.8,1.4,7.1,4.2,9.9c2.8,2.8,6.1,4.2,9.9,4.2
			h84.6V198h56.4v84.6h84.6c3.8,0,7.1-1.4,9.9-4.2c2.8-2.8,4.2-6.1,4.2-9.9V162.7c0-0.6-0.1-1-0.2-1.3L177.5,57z"/>
		<path d="M352.6,137.6l-48.2-40.1V7.7c0-2.1-0.7-3.7-2-5.1c-1.3-1.3-3-2-5.1-2H255c-2.1,0-3.7,0.7-5.1,2c-1.3,1.3-2,3-2,5.1v42.9
			L194.2,5.7C189.5,1.9,184,0,177.5,0c-6.5,0-12,1.9-16.7,5.7L2.4,137.6c-1.5,1.2-2.3,2.8-2.4,4.7c-0.1,2,0.4,3.7,1.5,5.2l13.7,16.3
			c1.2,1.3,2.7,2.1,4.6,2.4c1.8,0.1,3.5-0.4,5.3-1.5L177.5,37.7l152.4,127.1c1.2,1,2.7,1.5,4.6,1.5h0.7c1.9-0.3,3.4-1.1,4.6-2.4
			l13.7-16.3c1.2-1.5,1.7-3.2,1.5-5.2C354.8,140.4,354,138.8,352.6,137.6z"/>
	</g>
</g>
</svg>
