<?xml version="1.0" encoding="utf-8"?>
<!-- Generator: Adobe Illustrator 24.2.0, SVG Export Plug-In . SVG Version: 6.00 Build 0)  -->
<svg version="1.1" id="Layer_1" xmlns="http://www.w3.org/2000/svg" xmlns:xlink="http://www.w3.org/1999/xlink" x="0px" y="0px"
	 viewBox="0 0 443.3 328.3" style="enable-background:new 0 0 443.3 328.3;" xml:space="preserve">
<style type="text/css">
	.st0{stroke:#1F1500;stroke-width:1.6;stroke-miterlimit:10;}
	.st1{fill:#9D3700;stroke:#9D3700;stroke-miterlimit:10;}
	.st2{fill:#9D5900;stroke:#9D3700;stroke-width:0.6;stroke-miterlimit:10;}
	.st3{fill:#040015;stroke:#000000;stroke-width:0.3;stroke-miterlimit:10;}
	.st4{fill:#9D6100;}
	.st5{fill:none;stroke:#000000;stroke-width:3;stroke-miterlimit:10;}
</style>
<g id="face">
	<path class="st0" d="M322.2,139.6c0.3-3.5,2.4-6.7,5-9.4c-0.7,8.5,2.8,16.6,7.4,23.9c5.1,7.2,1,16-2.5,23.3
		c-1.5-1.6-3.1-3.1-4.6-4.7c0.8,5.6,1.8,11.3,1.4,17c-0.7,4.6-2.5,8.9-5.4,12.6c-1.9-0.6-3.8-1.4-5.6-2.3c-0.1,3.4-1.2,6.7-3.1,9.5
		c-0.4-2-0.8-4-1.2-6.1c-4.1,5.4-6.9,11.4-11.4,16.6c-0.8,1.5-0.6-4.2-1.8-2.4c-1.6,2.9-2.9,6-5.4,8.5c-3.9,4.5-9.6,7.5-15.3,10.2
		l-1.4,0.1c2.7-4.1,6.1-9.1,3.5-13.6c-3.1-3.9-9.1-5.2-14.2-6.4c0.8,2.7,1.8,5.3,3,7.9c-4.1-2.2-7.6-5.3-10.2-9.2
		c-3.2-4.5-6.8-8.8-9.4-13.6c-0.6-0.2-1.3-0.4-1.9-0.6c1.5-3.4,2.3-7.9-1.6-10.4c-1.8-1.9-4.5-0.9-6.8-0.2c-0.4-3.7-0.9-7.3-0.2-11
		c0.3-2.7,1.5-5.6-0.3-8c-2.2-3.6-4.6-7.2-5.1-11.4c-0.6-5.7-1.4-11.4-0.9-17.1c3.6,3.8,3.7,9.2,7.6,12.8c1.8,2,5.3,1.6,7.8,0.5
		c7-3.4,12-9.1,19.3-12c3.7-1.4,7.4,0.4,10.7,1.7c3.6-3.8,8.7-5.7,13.9-5.3c8.6,0,14.6,6.9,23.2,6.5
		C321.5,146.9,321.7,142.5,322.2,139.6 M273.4,160c-4.6,2.4-9.8,3.4-14.6,5.3c5.4,5,15,4.9,22.4,2.8c4.6-1.1,9.3-0.6,13.9-0.8
		c5.7-1.1,9.7-5.3,12.3-9.5c-8.7,1.6-17.7,0.2-25.6-3.9C279.3,156.3,276.5,158.4,273.4,160z"/>
	<g id="glasses">
		<polygon class="st1" points="322.3,115.6 330.1,114.8 332,111.7 333.2,112.2 331.1,115.8 331.1,117.2 329.6,118.2 322.7,118.8 		
			"/>
		<polygon class="st1" points="237.7,124.1 230,124.8 227.5,122.2 226.4,122.8 229.2,125.9 229.4,127.3 231.1,128.1 238.1,127.3 		
			"/>
		<path class="st2" d="M287.9,119.8l-3.1-4.2c-0.7-0.9-1.8-1.4-2.9-1.4l-2.8,0.1l-2.8,0.4c-1.1,0.2-2,0.9-2.5,1.9l-2.2,4.7l0.2-5.2
			l1-1.2c1-1.2,2.5-2,4.1-2.1l4-0.4c1.6-0.2,3.2,0.3,4.5,1.3l1.2,0.9L287.9,119.8z"/>
		<path class="st2" d="M323.3,115.4v0.5l0,0c0.1,1.4,0.1,2.7,0.1,4c0,0.8-0.1,1.6-0.2,2.4l0,0c-0.3,2.5-1,5-1.9,7.3
			c-0.1,0.4-0.3,0.7-0.5,1c-1.6,2.2-2.6,2.7-5.6,3.9c-0.8,0.3-1.6,0.6-2.4,0.7c-1.9,0.3-3.8,0.6-5.8,0.8c-1.6,0.2-3.2,0.3-4.8,0.3
			c-2.3,0.1-4.5-0.4-6.5-1.5c-5.1-2.8-8.5-8.1-10-14.4c-0.1-0.4-0.2-0.7-0.4-1.5c-0.2-1-0.4-2.1-0.5-3.1c-0.3-2.7,1-5.3,3.3-6.8h0.1
			c1.3-0.4,2.6-0.7,3.9-1.1c3.6-0.9,7.2-1.5,10.9-1.9c3.8-0.4,6.3-0.6,10.4-0.7c1,0,1.9,0,2.9,0.2c1,0.2,2,0.4,3,0.7
			c0.7,0.2,1.1,0.4,2.5,2c1.2,1.5,1.1,3.8,1.4,5.8C323.2,114.6,323.3,115,323.3,115.4z"/>
		<path class="st2" d="M235.8,123.9c0,0.2,0,0.3,0.1,0.5l0,0c0.2,1.3,0.4,2.7,0.7,4c0.2,0.8,0.4,1.6,0.7,2.3l0,0
			c0.8,2.4,1.9,4.7,3.3,6.8c0.2,0.3,0.4,0.6,0.7,0.8c2,1.7,3.1,2.1,6.2,2.7c0.8,0.2,1.7,0.3,2.5,0.2c1.9-0.1,3.9-0.2,5.8-0.4
			l4.7-0.6c2.2-0.4,4.3-1.3,6.1-2.7c4.4-3.8,6.7-9.6,7-16.1c0-0.4,0.1-0.7,0.1-1.6c0.1-1,0-2.1-0.1-3.1c-0.3-2.7-2-5-4.6-6h-0.1
			l-4-0.3c-3.7-0.1-7.4,0-11.1,0.3c-3.8,0.4-6.3,0.7-10.4,1.4c-1,0.1-1.9,0.3-2.8,0.8l-2.6,1.3c-0.6,0.3-1,0.6-2,2.5
			c-0.9,1.7-0.3,3.9-0.2,5.9V123.9z"/>
		<path class="st3" d="M321.5,116v0.4l0,0c0.1,1.2,0.1,2.4,0.1,3.6c0,0.7-0.1,1.5-0.2,2.2l0,0c-0.3,2.3-0.9,4.5-1.7,6.6
			c-0.1,0.3-0.3,0.6-0.5,0.9c-1.4,1.9-2.3,2.4-5,3.4c-0.3,0.1-1.4,0.5-2.1,0.7c-1.7,0.3-3.4,0.5-5.2,0.7l-4.3,0.3
			c-2,0.1-4-0.4-5.8-1.3c-4.6-2.5-7.6-7.2-9-12.9c-0.1-0.4-0.2-0.6-0.4-1.4c-0.2-0.9-0.4-1.8-0.5-2.7c-0.2-2.4,0.9-4.8,3-6.1h0.1
			c1.2-0.3,2.3-0.7,3.5-0.9c3.2-0.8,6.5-1.3,9.8-1.7c3.4-0.3,5.6-0.5,9.3-0.6c0.9,0,1.7,0,2.6,0.2c1.5,0.3,2.5,0.6,2.6,0.6
			c0.6,0.2,1,0.3,2.2,1.8c1.1,1.3,1,3.4,1.3,5.2C321.5,115.4,321.6,115.7,321.5,116z"/>
		<path class="st3" d="M237.8,123.8v0.4l0,0c0.1,1.2,0.4,2.4,0.6,3.5l0.6,2.1l0,0c0.7,2.2,1.7,4.2,3,6.1c0.2,0.3,0.4,0.6,0.7,0.8
			c1.7,1.6,2.7,1.9,5.6,2.4c0.7,0.1,1.5,0.2,2.2,0.2c1.7,0,3.5-0.2,5.2-0.3c1.4-0.1,2.8-0.3,4.2-0.6c2-0.3,3.9-1.1,5.4-2.5
			c4-3.4,6-8.6,6.3-14.4c0-0.4,0.1-0.7,0.1-1.4c0.1-0.9,0-1.9-0.1-2.8c-0.2-2.4-1.8-4.5-4.1-5.4h-0.1c-1.2-0.1-2.4-0.2-3.6-0.2
			c-3.3-0.1-6.6,0-9.9,0.3c-3.1,0.3-6.2,0.7-9.3,1.3c-0.8,0.2-1.6,0.4-2.4,0.7c-1.4,0.6-2.3,1.1-2.5,1.1c-0.6,0.3-0.9,0.5-1.8,2.2
			c-0.8,1.5-0.3,3.5-0.2,5.3C237.8,122.9,237.8,123.3,237.8,123.8z"/>
	</g>
	<g id="dastar">
		<path id="path4" class="st4" d="M355.4,64.3c1.3,13.1-2.4,26.2-10.5,36.6l-0.1,0.1c-0.5,0.8-1,1.6-1.6,2.4c0-0.1-0.1-0.2-0.1-0.4
			c-9.2-27.3-31.8-48-59.9-54.6c-1.3-0.3-2.5-0.6-3.8-0.8c4.2-1.2,8.5-2,12.9-2.5h0.1c2.2-0.2,4.4-0.3,6.6-0.3h0.1
			c0.5-0.1,1-0.1,1.5-0.2c0.2,0,0.4,0,0.6-0.1c12.3-1.1,24.6,0.5,36.2,4.6c-2.7-1.3-5.6-2.4-8.5-3.2c-8-2.6-16.4-3.9-24.8-4h-0.2
			c-2.8,0.1-5.7,0.1-8.4,0.4c-5.9,0.6-11.7,1.8-17.4,3.6c-0.3,0.5-0.5,1-0.8,1.5l0,0c-0.2,0.3-0.4,0.6-0.6,0.9l-0.2,0.4
			c-0.2,0.3-0.4,0.6-0.6,0.9c0,0.1-0.1,0.1-0.1,0.2c0.9,0.2,1.8,0.3,2.7,0.5c0.7,0.2,1.3,0.3,1.9,0.5c21.3,4.8,39.9,17.8,51.7,36.2
			l0.2,0.2c0.3,0.6,0.7,1.1,1,1.7c0.1,0.3,0.3,0.5,0.5,0.8c0.1,0.1,0.1,0.2,0.2,0.3c2.8,4.9,5.1,10,6.8,15.4
			c0.1,0.2,0.2,0.5,0.2,0.7c0.1,0.3,0.2,0.5,0.3,0.8c0.1,0.5,0.2,0.9,0.4,1.4c-3.3,4.5-7.3,8.5-11.9,11.7c-0.4-0.8-0.8-1.6-1.3-2.4
			c0-0.1-0.1-0.2-0.2-0.3c-0.4-0.7-0.7-1.3-1.1-2c-6.6-12-14.9-22.9-24.8-32.3c-0.2-0.3-0.6-0.5-0.9-0.9l-1.9-1.9
			c-0.6-0.5-1.1-1-1.6-1.4c-1-0.8-2-1.8-3-2.6c-0.5-0.4-1-0.8-1.5-1.2c-0.3-0.3-0.6-0.5-0.9-0.7c-0.4-0.3-0.7-0.6-1.1-0.9
			c-0.2-0.1-0.4-0.3-0.6-0.5c-0.2-0.2-0.5-0.3-0.7-0.5c-0.2-0.2-0.6-0.4-0.9-0.7c-0.1,0-0.1-0.1-0.2-0.1c-0.2-0.2-0.5-0.4-0.7-0.6
			c-0.3-0.3-0.7-0.5-1-0.7c-0.2-0.1-0.3-0.3-0.5-0.4s-0.5-0.4-0.7-0.5h-0.1c-0.6-0.4-1.2-0.8-1.7-1.2l-1.8-1.2
			c-0.6-0.4-1.2-0.8-1.8-1.1c-0.6-0.4-1.2-0.8-1.8-1.1c-0.9-0.5-1.6-1-2.5-1.5c-0.3-0.2-0.5-0.3-0.8-0.4c-0.4-0.3-0.9-0.5-1.2-0.7
			s-0.7-0.4-1.1-0.6c-0.6-0.4-1.2-0.7-1.9-1l-0.1,0.1c-6,6.7-11.6,13.8-16.8,21.2c-0.6,0.9-1.3,1.9-1.9,2.8
			c-0.1,0.2-0.2,0.2-0.2,0.4c-0.2,0.4-0.5,0.8-0.8,1.2l-0.2,0.1c-0.4,0.7-0.9,1.4-1.3,2.1c-0.4,0.5-0.7,1-1,1.5
			c-4.4,6.8-8.4,13.8-11.9,21.1c-3.6,7.2-6.7,14.6-9.3,22.2c-0.5-0.4-0.9-0.7-1.3-1c-1.2-1-2.4-2-3.5-2.9c-0.2-0.1-0.2-0.2-0.2-0.2
			c-0.6-0.6-1.2-1.1-1.8-1.6c-0.2-0.1-0.2-0.2-0.2-0.2c-0.2-0.1-0.4-0.3-0.5-0.5l0,0l-0.2-0.2c-0.5-0.4-1.1-1-1.5-1.5l-0.6-0.6
			l-0.6-0.6l-0.2-0.1c-2.8-2.7-5.4-5.5-7.8-8.5c-1.2-1.4-2.3-2.8-3.4-4.2c-1.2-1.5-2.4-3.1-3.5-4.8c-3-4.1-5.7-8.4-8.1-12.9
			c-0.2-0.8-0.3-1.7-0.5-2.6c-0.2-0.8-0.3-1.7-0.4-2.5l-0.5-5.1c-0.4-4.2-0.4-8.4,0-12.6c0.1-0.7,0.1-1.3,0.2-2c0.3-3,0.8-6,1.3-8.8
			c2.4-4.9,5.2-9.5,8.6-13.8l0.1-0.1l0.3-0.3c2.5-3.2,5.1-6.1,8-8.9l1.1-1.1c0.1,0,0.1-0.2,0.2-0.2c13.2-12.2,30.1-19.8,48-21.6
			c1.8-0.2,3.6-0.4,5.4-0.4c-8.4,2.4-16.4,6.3-23.5,11.3c-4.6,2.4-9,5.1-13.3,8.1c-0.4,0.3-0.8,0.6-1.3,0.9c-0.1,0-0.2,0.2-0.3,0.3
			c-4.9,3.5-9.5,7.3-13.9,11.5l-0.3,0.3l-0.1,0.1c-4.7,4.5-9.1,9.4-13.2,14.5c4.9-5.2,10.2-10.1,15.8-14.5l0.1-0.1
			c0.1-0.1,0.2-0.2,0.3-0.2c8.3-6.4,17.3-11.9,26.8-16.2c1.1-0.4,2.2-0.9,3.3-1.5c0.4-0.2,0.9-0.3,1.2-0.5c1.2-0.5,2.3-0.9,3.6-1.4
			c9.3-3.8,18.2-8.6,26.4-14.4c3.7-2.6,7.2-5.3,10.7-8.2l2-1.7c1.9-0.6,3.8-1,5.7-1.2c5.9-0.6,11.9,0.5,17.2,3.1
			c2.3,1.3,4.6,2.9,6.7,4.5c2.7,2,5.2,4.1,7.7,6.4c-5,1.1-9.9,2.5-14.7,4.1c-3.1,1-6.1,2.2-9.1,3.5c-0.1,0-0.2,0.1-0.3,0.1
			c-3.5,1.4-6.8,3.1-10.1,4.9c-2.2,1.2-4.2,2.3-6.2,3.6c-1.1,0.5-2.1,1.2-3,1.9c-0.2,0.5-0.3,0.8-0.5,1.3c2.3-1.3,4.6-2.5,6.9-3.7
			c1.9-1,3.9-1.8,5.9-2.6c0.7-0.3,1.4-0.6,2.2-0.9c3.5-1.4,7.1-2.8,10.7-3.9c0.2-0.1,0.4-0.1,0.6-0.2c3.1-1,6.1-1.8,9.2-2.5
			c0.9-0.2,1.8-0.4,2.6-0.6c5.9,0.8,11.5,3.2,16.1,7l2.7,3.9c0.8,1.3,1.5,2.5,2.4,3.8c-0.5-0.2-1.1-0.3-1.6-0.4
			c-2.9-0.7-5.9-1.5-8.8-2c-0.6-0.2-1.3-0.3-1.9-0.3c-2.9-0.5-5.8-0.9-8.8-1.2c-0.8,0-1.7,0.1-2.5,0.2l-3.2,0.3
			c-11.8,1.2-23.3,3.9-34.4,8.1c-0.4,1-0.8,1.9-1.3,2.8c8.9-2.8,18-4.7,27.2-5.7c7-0.7,14.1-0.8,21.2-0.5c2.5,0.1,4.9,0.4,7.4,0.7
			c0.5,0.1,1,0.1,1.6,0.2c2.1,0.2,4.3,0.6,6.4,0.9c0.2,0.2,0.3,0.4,0.5,0.6C350.9,45.8,354.4,54.8,355.4,64.3z"/>
	</g>
</g>
<g id="text">
	<g>
		<path d="M20.6,215.6c1.4-0.9,3-1.5,4.6-1.9c1.6-0.4,3.3-0.6,5-0.6c4,0.1,7.9,1.2,11.3,3.3c1.5,0.9,3,1.9,4.2,3.2
			c2.9,3,4.8,6.7,5.5,10.8c0.3,1.8,0.5,3.7,0.5,5.5c0.2,4.6-1.6,9-4.8,12.3c-0.5,0.5-1,0.9-1.5,1.4c-0.4,0.3-0.8,0.5-1.2,0.7
			c-0.3,0.1-0.7,0.2-1.1,0.2c-0.4,0-0.7-0.1-1.1-0.3c-0.8-0.4-1.4-1-1.8-1.7c-0.3-0.7-0.5-1.5-0.5-2.2c0-0.4,0.1-0.8,0.1-1.2
			c0.3-1.1,1-2.1,1.9-2.8c0.1-0.1,0.1-0.1,0.2-0.1v-0.1c0.7-0.6,1-1.9,1-3.7c0-1.9-0.3-3.8-0.6-5.6c-0.5-2.5-1.6-4.8-3.4-6.6
			c-0.7-0.7-1.5-1.4-2.4-1.9c-1.6-0.8-3.3-1.1-5-1c-1.8,0-3.5,0.2-5.2,0.6c-0.8,0.2-1.5,0.5-2.1,1.1c-0.3,0.4-0.6,0.8-0.9,1.2
			c-1.4,2.6-2.6,5.3-3.6,8c-0.4,3.8-1.2,7.6-2.6,11.2c-0.4,1-1,1.8-1.9,2.4c-0.7,0.5-1.6,0.7-2.4,0.7c-0.2,0-0.4,0-0.6-0.1
			c-1.1-0.1-2.1-0.6-2.7-1.4c-0.7-0.8-1-1.8-0.9-2.9c0.3-3.8,1.1-7.5,2.4-11.1c0.4-3.6,0.5-7.2,0.5-10.8c0-1.3,0-2.8-0.1-4.4
			c-0.1-4.1-0.7-6.7-1.9-7.9c-0.5-0.5-1.1-0.7-1.8-0.7c-0.4,0-0.8,0.1-1.2,0.2c-0.3,0.1-0.6,0.1-0.9,0.1c-0.9,0-1.7-0.3-2.4-0.8
			c-1-0.7-1.6-1.8-1.6-3c0-0.1-0.1-0.3-0.1-0.4c0-1.1,0.4-2.1,1.1-2.9c0.7-0.9,1.7-1.6,2.9-1.8c1-0.2,2.1-0.3,3.2-0.3
			c2.8-0.1,5.6,1,7.6,3c2.8,2.8,4.2,6.9,4.4,12.3L20.6,215.6z"/>
		<path d="M71.8,193c4,0.1,7.9,0.9,11.6,2.4c0.7,0.2,1.3,0.6,1.9,1c0.5,0.3,0.9,0.7,1.1,1.2c0.4,0.6,0.7,1.3,1,2
			c0.3,0.8,0.4,1.7,0.4,2.5c0,2.7-1.6,6.1-4.7,10.3c10.1,0.1,17.8,2.4,23,7c6.5,5.9,9.8,13.9,9.8,24c0,1.7-0.1,3.5-0.3,5.2
			c-0.1,1-0.4,1.9-1,2.7l-0.1,0.1c0,0-0.1,0.1-0.1,0.1l-0.2,0.2c-0.1,0.1-0.1,0.2-0.1,0.2c-0.4,0.4-0.8,0.7-1.2,0.9
			c-0.3,0.2-0.6,0.3-1,0.3c-0.2,0-0.4-0.1-0.6-0.1c-0.2,0-0.4-0.1-0.6-0.2c-0.3-0.2-0.5-0.4-0.7-0.6c-0.9-0.7-1.5-1.8-1.5-3
			c-0.2-7.9-3.3-15.2-9.2-21.8c-2.1-2.4-7.1-3.7-15.1-3.7c-2.4,0-4.9,0.1-7.6,0.4h-0.6c-0.4,0-0.9-0.1-1.3-0.2
			c-3.3,5.2-5,9.3-5,12.4v0.1c1.1,3.6,4.5,5.5,10.3,5.5c1.9,0,3.7-0.2,5.6-0.5h0.6c1,0,1.9,0.3,2.7,0.9c0.9,0.7,1.5,1.9,1.4,3.1
			c0,0,0.1,0.1,0.1,0.1c0,1.1-0.4,2.3-1.2,3.1c-0.4,0.4-0.8,0.7-1.3,0.9c-0.4,0.3-0.9,0.5-1.4,0.6c-3.5,1-7,1.6-10.6,1.6
			c-4.3,0-7.6-1.1-10-3.4s-3.6-5.7-3.6-10.3c-0.1-7.7,4.2-17.6,13-29.5c1.1-1.3,1.9-2.8,2.7-4.3c-2.8-1.1-5.8-1.8-8.9-1.9
			c-3.6,0-6.3,1.1-8,3.2c-0.7,0.9-1.8,1.6-2.9,1.8c-0.3,0.1-0.6,0.1-0.9,0.1c-0.9,0-1.8-0.3-2.5-0.9c-0.3-0.2-0.7-0.5-0.9-0.9
			c-0.2-0.3-0.4-0.6-0.5-1c0-0.1-0.1-0.3-0.1-0.4c0-1.2,0.4-2.3,1.1-3.2C59.1,195.7,65,193,71.8,193z"/>
		<path d="M130.3,240.9l1.5,1c2.1,1.4,4.6,2.2,7.1,2.3c4,0,7.7-2.6,11.1-7.7c0.1-0.3,0.4-0.5,0.6-0.7c0.4-0.3,0.9-0.6,1.4-0.7
			c0.4-0.1,0.8-0.1,1.1-0.1h0.6c1.2,0.1,2.3,0.7,3,1.6c0.5,0.7,0.8,1.6,0.8,2.4c0,0.3,0,0.6-0.1,0.9c-0.2,1.2-0.9,2.2-1.9,2.9
			c-7.6,5.9-14.3,8.9-20,8.9c-2.8,0.1-5.5-0.6-8-1.8c-4.7-2.4-7-5.4-7-9.1c0-2.7,1.2-5.6,3.7-8.8c1.1-1.3,2.3-2.5,3.7-3.6
			c-2.5-0.4-4.8-1.6-6.6-3.3c-1.1-1.2-2-2.6-2.4-4.2c-0.3-1.2-0.5-2.4-0.5-3.7c0-3.5,1.5-6.8,4-9.2c1.4-1.3,2.9-2.4,4.5-3.2
			l-0.6-0.1c-0.3,0-0.6-0.2-0.9-0.4c-0.4-0.4-0.8-0.8-1.2-1.2c-0.4-0.4-0.6-1-0.6-1.6c0-0.2,0.2-0.5,0.7-1c0.3-0.4,0.7-0.7,1.1-0.9
			c0.4-0.4,0.8-0.7,1.3-1c0.3-0.2,0.7-0.3,1.1-0.4c3.6-0.8,7.3-1.2,11-1.3c2.9-0.1,5.9,0.4,8.6,1.5c0.4,0.2,0.8,0.4,1.2,0.7
			c0.1,0.1,0.2,0.2,0.3,0.4c0.6,0.6,0.9,1.4,1,2.3c0.2,0.6,0.3,1.3,0.3,2v0.1c0,0.3-0.1,0.6-0.1,0.9c-0.4,1.2-1.2,2.2-2.2,2.9
			c-0.6,0.5-1.3,0.9-2.1,1.3l-0.3,0.1c-0.1,0-0.2,0.1-0.4,0.1l-0.4,0.1l-12,2.2c-1.7,0.5-3.2,1.4-4.5,2.7c-0.6,0.6-0.9,1.4-0.9,2.3
			c0,0.5,0.1,0.9,0.1,1.4c0.4,1.8,1.3,2.6,2.7,2.6c1.4-0.1,2.7-0.5,4-1c5.1-1.8,10.3-2.9,15.6-3.4h0.6c1.7,0,3.3,0.9,4,2.5v0.1
			c0.1,0.2,0.2,0.4,0.4,0.6c0.2,0.5,0.2,1,0.2,1.5c0,0.3,0,0.5-0.1,0.8c-0.1,0.6-0.2,1.2-0.5,1.8c-0.9,1.9-3.1,3.5-6.5,4.7
			c-7.2,2.4-12.4,5.6-15.7,9.4C131.6,238.8,130.9,239.8,130.3,240.9z"/>
		<path d="M149.8,97.7c4.3-1.7,8.8-2.5,13.4-2.5h0.4c4.2,0,8.2,1.6,11.1,4.6c1.7,1.8,3.1,3.9,4.1,6.2c1.1,2.4,2,4.9,2.7,7.4
			c0.6,2.6,1.1,5.2,1.4,7.9c0.3,2.8,0.5,5.1,0.6,6.7c0.1,1.7,0.1,3.2,0.1,4.8c0,4.7,0,8-0.1,9.9c-2.3,67.5-12.8,121.5-31.6,162.2
			c-0.1,0.2-0.2,0.4-0.3,0.6c0.2,0.3,0.3,0.6,0.3,0.9c0,0.2-0.3,0.6-0.8,1.1s-0.8,0.8-1,0.8c-0.4,0-0.8-0.1-1.2-0.3
			c-0.5-0.1-1-0.4-1.4-0.6c-0.3-0.2-0.6-0.4-0.9-0.7c-0.1-0.2-0.3-0.3-0.4-0.5c-0.2-0.5-0.4-1-0.5-1.6V304c0-0.5,0.1-1,0.2-1.4
			c17.6-60.1,26.4-111,26.4-152.4c0-2.1,0-4.5-0.1-7c-0.6-21.4-2-33.6-4-36.6c0-0.1-0.1-0.2-0.2-0.2c-1.4-1.4-3.3-2.2-5.3-2.2h-0.6
			c-4.3,0-7.4,0.5-9.4,1.5c-1.3,0.7-2.5,1.6-3.4,2.7c-1.1,1.1-2,2.3-2.8,3.5l-2,3.4c-0.5,0.7-0.8,1.4-1.1,2.2
			c-4.2,8.3-7.8,33.7-10.8,76.2c-0.2,0.9-0.5,1.8-0.9,2.6c0,0.2-0.1,0.2-0.2,0.2v0.1c0,0.4-0.1,0.8-0.4,1.1
			c-0.3,0.3-0.7,0.5-1.1,0.6c-0.2,0-0.4,0.1-0.6,0.1c-1,0-2-0.4-2.8-1.1c-0.9-0.9-1.3-2-1.3-3.2c0.6-35.9,4.4-63.1,11.4-81.7
			C139.6,104.9,143.9,99.9,149.8,97.7z"/>
		<path d="M234.7,224.4c0,5-1.9,10.4-5.6,16.2c-4.5,7-10.5,10.5-18,10.5c-2.2,0-4.4-0.3-6.6-0.9c-1.9-0.4-3.7-1.2-5.3-2.3
			c-1.4-1-2.6-2.2-3.5-3.7c-0.8-1.3-1.4-2.8-1.8-4.3c-0.4-1.5-0.6-3-0.6-4.6c0-1.6,0-2.8,0.1-3.6c0.5-7,4.1-13.5,9.8-17.7
			c1.9-1.5,3.9-2.7,6-3.7c-4.2-1.7-8.7-2.6-13.2-2.7c-3.4,0-6.7,0.9-9.7,2.5c-0.5,0.3-1,0.5-1.6,0.6c-0.1,0.1-0.2,0.1-0.4,0.1
			c-0.1,0-0.3,0-0.4,0h-0.4c-1.3,0-2.6-0.6-3.3-1.7c-0.5-0.7-0.7-1.5-0.7-2.3c0-0.4,0-0.7,0.2-1.1c0.3-1.2,0.9-2.2,1.9-2.9
			c2.6-1.9,5.5-3.5,8.5-4.5c2.1-0.8,4.4-1.3,6.6-1.4h1.1c0.7,0,1.4,0,2,0c0.6,0,1.5,0,2.6,0.1c1.1,0.1,2.2,0.3,3.3,0.5
			c1.3,0.3,2.6,0.7,3.9,1.1c1.6,0.5,3.1,1.2,4.6,1.9c1.5,0.7,3.3,1.7,5.2,2.8c2,1.2,4,2.5,5.8,3.9
			C231.5,212.2,234.7,217.9,234.7,224.4z M221.2,217.4c-0.1,0.1-0.1,0.1-0.2,0.1c-0.7,0.3-1.4,0.5-2.2,0.5c-0.4,0-0.8-0.1-1.1-0.1
			c-0.9-0.2-1.8-0.3-2.7-0.3c-2.4,0.1-4.8,1-6.6,2.7c-3.6,3-5.4,6.4-5.4,10.4v0.9c0.3,6,1.8,9.4,4.5,10.2c1.7,0.5,3.5,0.8,5.2,0.8
			c3.7,0.2,7.1-2,8.5-5.4c2.1-4.3,3.2-8.1,3.2-11.3C224.5,222.6,223.3,219.6,221.2,217.4L221.2,217.4z"/>
	</g>
	<g>
		<path class="st5" d="M20.6,215.6c1.4-0.9,3-1.5,4.6-1.9c1.6-0.4,3.3-0.6,5-0.6c4,0.1,7.9,1.2,11.3,3.3c1.5,0.9,3,1.9,4.2,3.2
			c2.9,3,4.8,6.7,5.5,10.8c0.3,1.8,0.5,3.7,0.5,5.5c0.2,4.6-1.6,9-4.8,12.3c-0.5,0.5-1,0.9-1.5,1.4c-0.4,0.3-0.8,0.5-1.2,0.7
			c-0.3,0.1-0.7,0.2-1.1,0.2c-0.4,0-0.7-0.1-1.1-0.3c-0.8-0.4-1.4-1-1.8-1.7c-0.3-0.7-0.5-1.5-0.5-2.2c0-0.4,0.1-0.8,0.1-1.2
			c0.3-1.1,1-2.1,1.9-2.8c0.1-0.1,0.1-0.1,0.2-0.1v-0.1c0.7-0.6,1-1.9,1-3.7c0-1.9-0.3-3.8-0.6-5.6c-0.5-2.5-1.6-4.8-3.4-6.6
			c-0.7-0.7-1.5-1.4-2.4-1.9c-1.6-0.8-3.3-1.1-5-1c-1.8,0-3.5,0.2-5.2,0.6c-0.8,0.2-1.5,0.5-2.1,1.1c-0.3,0.4-0.6,0.8-0.9,1.2
			c-1.4,2.6-2.6,5.3-3.6,8c-0.4,3.8-1.2,7.6-2.6,11.2c-0.4,1-1,1.8-1.9,2.4c-0.7,0.5-1.6,0.7-2.4,0.7c-0.2,0-0.4,0-0.6-0.1
			c-1.1-0.1-2.1-0.6-2.7-1.4c-0.7-0.8-1-1.8-0.9-2.9c0.3-3.8,1.1-7.5,2.4-11.1c0.4-3.6,0.5-7.2,0.5-10.8c0-1.3,0-2.8-0.1-4.4
			c-0.1-4.1-0.7-6.7-1.9-7.9c-0.5-0.5-1.1-0.7-1.8-0.7c-0.4,0-0.8,0.1-1.2,0.2c-0.3,0.1-0.6,0.1-0.9,0.1c-0.9,0-1.7-0.3-2.4-0.8
			c-1-0.7-1.6-1.8-1.6-3c0-0.1-0.1-0.3-0.1-0.4c0-1.1,0.4-2.1,1.1-2.9c0.7-0.9,1.7-1.6,2.9-1.8c1-0.2,2.1-0.3,3.2-0.3
			c2.8-0.1,5.6,1,7.6,3c2.8,2.8,4.2,6.9,4.4,12.3L20.6,215.6z"/>
		<path class="st5" d="M71.8,193c4,0.1,7.9,0.9,11.6,2.4c0.7,0.2,1.3,0.6,1.9,1c0.5,0.3,0.9,0.7,1.1,1.2c0.4,0.6,0.7,1.3,1,2
			c0.3,0.8,0.4,1.7,0.4,2.5c0,2.7-1.6,6.1-4.7,10.3c10.1,0.1,17.8,2.4,23,7c6.5,5.9,9.8,13.9,9.8,24c0,1.7-0.1,3.5-0.3,5.2
			c-0.1,1-0.4,1.9-1,2.7l-0.1,0.1c0,0-0.1,0.1-0.1,0.1l-0.2,0.2c-0.1,0.1-0.1,0.2-0.1,0.2c-0.4,0.4-0.8,0.7-1.2,0.9
			c-0.3,0.2-0.6,0.3-1,0.3c-0.2,0-0.4-0.1-0.6-0.1c-0.2,0-0.4-0.1-0.6-0.2c-0.3-0.2-0.5-0.4-0.7-0.6c-0.9-0.7-1.5-1.8-1.5-3
			c-0.2-7.9-3.3-15.2-9.2-21.8c-2.1-2.4-7.1-3.7-15.1-3.7c-2.4,0-4.9,0.1-7.6,0.4h-0.6c-0.4,0-0.9-0.1-1.3-0.2
			c-3.3,5.2-5,9.3-5,12.4v0.1c1.1,3.6,4.5,5.5,10.3,5.5c1.9,0,3.7-0.2,5.6-0.5h0.6c1,0,1.9,0.3,2.7,0.9c0.9,0.7,1.5,1.9,1.4,3.1
			c0,0,0.1,0.1,0.1,0.1c0,1.1-0.4,2.3-1.2,3.1c-0.4,0.4-0.8,0.7-1.3,0.9c-0.4,0.3-0.9,0.5-1.4,0.6c-3.5,1-7,1.6-10.6,1.6
			c-4.3,0-7.6-1.1-10-3.4s-3.6-5.7-3.6-10.3c-0.1-7.7,4.2-17.6,13-29.5c1.1-1.3,1.9-2.8,2.7-4.3c-2.8-1.1-5.8-1.8-8.9-1.9
			c-3.6,0-6.3,1.1-8,3.2c-0.7,0.9-1.8,1.6-2.9,1.8c-0.3,0.1-0.6,0.1-0.9,0.1c-0.9,0-1.8-0.3-2.5-0.9c-0.3-0.2-0.7-0.5-0.9-0.9
			c-0.2-0.3-0.4-0.6-0.5-1c0-0.1-0.1-0.3-0.1-0.4c0-1.2,0.4-2.3,1.1-3.2C59.1,195.7,65,193,71.8,193z"/>
		<path class="st5" d="M130.3,240.9l1.5,1c2.1,1.4,4.6,2.2,7.1,2.3c4,0,7.7-2.6,11.1-7.7c0.1-0.3,0.4-0.5,0.6-0.7
			c0.4-0.3,0.9-0.6,1.4-0.7c0.4-0.1,0.8-0.1,1.1-0.1h0.6c1.2,0.1,2.3,0.7,3,1.6c0.5,0.7,0.8,1.6,0.8,2.4c0,0.3,0,0.6-0.1,0.9
			c-0.2,1.2-0.9,2.2-1.9,2.9c-7.6,5.9-14.3,8.9-20,8.9c-2.8,0.1-5.5-0.6-8-1.8c-4.7-2.4-7-5.4-7-9.1c0-2.7,1.2-5.6,3.7-8.8
			c1.1-1.3,2.3-2.5,3.7-3.6c-2.5-0.4-4.8-1.6-6.6-3.3c-1.1-1.2-2-2.6-2.4-4.2c-0.3-1.2-0.5-2.4-0.5-3.7c0-3.5,1.5-6.8,4-9.2
			c1.4-1.3,2.9-2.4,4.5-3.2l-0.6-0.1c-0.3,0-0.6-0.2-0.9-0.4c-0.4-0.4-0.8-0.8-1.2-1.2c-0.4-0.4-0.6-1-0.6-1.6c0-0.2,0.2-0.5,0.7-1
			c0.3-0.4,0.7-0.7,1.1-0.9c0.4-0.4,0.8-0.7,1.3-1c0.3-0.2,0.7-0.3,1.1-0.4c3.6-0.8,7.3-1.2,11-1.3c2.9-0.1,5.9,0.4,8.6,1.5
			c0.4,0.2,0.8,0.4,1.2,0.7c0.1,0.1,0.2,0.2,0.3,0.4c0.6,0.6,0.9,1.4,1,2.3c0.2,0.6,0.3,1.3,0.3,2v0.1c0,0.3-0.1,0.6-0.1,0.9
			c-0.4,1.2-1.2,2.2-2.2,2.9c-0.6,0.5-1.3,0.9-2.1,1.3l-0.3,0.1c-0.1,0-0.2,0.1-0.4,0.1l-0.4,0.1l-12,2.2c-1.7,0.5-3.2,1.4-4.5,2.7
			c-0.6,0.6-0.9,1.4-0.9,2.3c0,0.5,0.1,0.9,0.1,1.4c0.4,1.8,1.3,2.6,2.7,2.6c1.4-0.1,2.7-0.5,4-1c5.1-1.8,10.3-2.9,15.6-3.4h0.6
			c1.7,0,3.3,0.9,4,2.5v0.1c0.1,0.2,0.2,0.4,0.4,0.6c0.2,0.5,0.2,1,0.2,1.5c0,0.3,0,0.5-0.1,0.8c-0.1,0.6-0.2,1.2-0.5,1.8
			c-0.9,1.9-3.1,3.5-6.5,4.7c-7.2,2.4-12.4,5.6-15.7,9.4C131.6,238.8,130.9,239.8,130.3,240.9z"/>
		<path class="st5" d="M149.8,97.7c4.3-1.7,8.8-2.5,13.4-2.5h0.4c4.2,0,8.2,1.6,11.1,4.6c1.7,1.8,3.1,3.9,4.1,6.2
			c1.1,2.4,2,4.9,2.7,7.4c0.6,2.6,1.1,5.2,1.4,7.9c0.3,2.8,0.5,5.1,0.6,6.7c0.1,1.7,0.1,3.2,0.1,4.8c0,4.7,0,8-0.1,9.9
			c-2.3,67.5-12.8,121.5-31.6,162.2c-0.1,0.2-0.2,0.4-0.3,0.6c0.2,0.3,0.3,0.6,0.3,0.9c0,0.2-0.3,0.6-0.8,1.1s-0.8,0.8-1,0.8
			c-0.4,0-0.8-0.1-1.2-0.3c-0.5-0.1-1-0.4-1.4-0.6c-0.3-0.2-0.6-0.4-0.9-0.7c-0.1-0.2-0.3-0.3-0.4-0.5c-0.2-0.5-0.4-1-0.5-1.6V304
			c0-0.5,0.1-1,0.2-1.4c17.6-60.1,26.4-111,26.4-152.4c0-2.1,0-4.5-0.1-7c-0.6-21.4-2-33.6-4-36.6c0-0.1-0.1-0.2-0.2-0.2
			c-1.4-1.4-3.3-2.2-5.3-2.2h-0.6c-4.3,0-7.4,0.5-9.4,1.5c-1.3,0.7-2.5,1.6-3.4,2.7c-1.1,1.1-2,2.3-2.8,3.5l-2,3.4
			c-0.5,0.7-0.8,1.4-1.1,2.2c-4.2,8.3-7.8,33.7-10.8,76.2c-0.2,0.9-0.5,1.8-0.9,2.6c0,0.2-0.1,0.2-0.2,0.2v0.1
			c0,0.4-0.1,0.8-0.4,1.1c-0.3,0.3-0.7,0.5-1.1,0.6c-0.2,0-0.4,0.1-0.6,0.1c-1,0-2-0.4-2.8-1.1c-0.9-0.9-1.3-2-1.3-3.2
			c0.6-35.9,4.4-63.1,11.4-81.7C139.6,104.9,143.9,99.9,149.8,97.7z"/>
		<path class="st5" d="M234.7,224.4c0,5-1.9,10.4-5.6,16.2c-4.5,7-10.5,10.5-18,10.5c-2.2,0-4.4-0.3-6.6-0.9
			c-1.9-0.4-3.7-1.2-5.3-2.3c-1.4-1-2.6-2.2-3.5-3.7c-0.8-1.3-1.4-2.8-1.8-4.3c-0.4-1.5-0.6-3-0.6-4.6c0-1.6,0-2.8,0.1-3.6
			c0.5-7,4.1-13.5,9.8-17.7c1.9-1.5,3.9-2.7,6-3.7c-4.2-1.7-8.7-2.6-13.2-2.7c-3.4,0-6.7,0.9-9.7,2.5c-0.5,0.3-1,0.5-1.6,0.6
			c-0.1,0.1-0.2,0.1-0.4,0.1c-0.1,0-0.3,0-0.4,0h-0.4c-1.3,0-2.6-0.6-3.3-1.7c-0.5-0.7-0.7-1.5-0.7-2.3c0-0.4,0-0.7,0.2-1.1
			c0.3-1.2,0.9-2.2,1.9-2.9c2.6-1.9,5.5-3.5,8.5-4.5c2.1-0.8,4.4-1.3,6.6-1.4h1.1c0.7,0,1.4,0,2,0c0.6,0,1.5,0,2.6,0.1
			c1.1,0.1,2.2,0.3,3.3,0.5c1.3,0.3,2.6,0.7,3.9,1.1c1.6,0.5,3.1,1.2,4.6,1.9c1.5,0.7,3.3,1.7,5.2,2.8c2,1.2,4,2.5,5.8,3.9
			C231.5,212.2,234.7,217.9,234.7,224.4z M221.2,217.4c-0.1,0.1-0.1,0.1-0.2,0.1c-0.7,0.3-1.4,0.5-2.2,0.5c-0.4,0-0.8-0.1-1.1-0.1
			c-0.9-0.2-1.8-0.3-2.7-0.3c-2.4,0.1-4.8,1-6.6,2.7c-3.6,3-5.4,6.4-5.4,10.4v0.9c0.3,6,1.8,9.4,4.5,10.2c1.7,0.5,3.5,0.8,5.2,0.8
			c3.7,0.2,7.1-2,8.5-5.4c2.1-4.3,3.2-8.1,3.2-11.3C224.5,222.6,223.3,219.6,221.2,217.4L221.2,217.4z"/>
	</g>
	<g>
		<path d="M221.5,275.3c2.6,2.5,4.2,5.9,4.2,9.5c0,0.4,0,0.7-0.1,1.1c-0.3,3.9-2.7,7.6-7.2,11.1c-2.2,1.7-6.3,3.5-12.2,5.5
			c-4.5,1.4-9.2,2.3-13.9,2.6c0,1.6,0.1,3.3,0.4,4.9l1.9,2.1c2.6,3.4,5.4,5.2,8.4,5.2c1.1,0,2.2-0.2,3.2-0.6
			c11.5-3.8,19.2-7.5,23.2-11c0.3-0.3,0.6-0.5,1-0.7c0.1,0,0.3-0.1,0.4-0.2l1.4-0.4c0.5-0.2,1.1-0.3,1.7-0.3c0.7,0,1.3,0.2,1.8,0.6
			c0.2,0.2,0.5,0.4,0.7,0.7c0.3,0.4,0.5,0.9,0.5,1.4c0,0.1,0,0.2,0,0.3c0,0.2,0,0.3,0,0.3c-0.2,1-0.7,1.9-1.5,2.6
			c-9.5,9.8-19,15.4-28.5,16.8c-0.7,0.1-1.4,0.1-2.1,0.2c-5.1,0-10.4-2.8-15.9-8.3c-0.7-0.7-1.5-1.6-2.3-2.7
			c-1.7-2.1-2.8-5.9-3.3-11.1c-1.1-0.1-2.2-0.4-3.3-0.9c-0.7-0.3-1.4-0.8-2-1.4c-0.3-0.3-0.5-0.7-0.7-1.1c-0.1-0.1-0.1-0.2-0.2-0.4
			c-0.2-0.5-0.4-1-0.6-1.5c-0.1-0.4-0.1-0.8-0.1-1.2c0-0.5,0.1-1,0.2-1.5c0.3-1.1,0.8-2,1.4-2.9c0.4-0.6,0.9-1.2,1.5-1.7
			c0.8-0.8,1.6-1.5,2.5-2.1c1.3-0.8,2.7-1.3,4.2-1.4h0.3c1.4,0,2.6,0.6,3.6,1.6c0.4,0.4,0.8,1,1,1.5c0.6,1.3,1,2.8,1,4.3
			c4.2-0.2,8.4-0.8,12.4-1.8c3.9-0.9,6.6-2.2,8.2-3.9c0.7-0.7,1.2-1.5,1.5-2.4c0.2-0.7,0.3-1.4,0.3-2.2c0-1.4-0.6-2.8-1.6-3.7
			c-1.7-1.6-3.8-2.7-6.1-3.2c-3.1-0.9-6.3-1.4-9.5-1.4c-5,0-9.8,1.3-14.2,3.7c-0.6,0.3-1.4,0.5-2.1,0.5c-0.4,0-0.8,0-1.2-0.1
			c-0.4-0.1-0.9-0.2-1.3-0.4c-0.6-0.3-1.1-0.8-1.3-1.4c-0.1-0.1-0.1-0.1-0.1-0.2c-0.1-0.4-0.2-0.8-0.2-1.2c0-0.5,0.1-0.9,0.3-1.3
			c0.2-0.5,0.5-1,0.9-1.4c0.4-0.4,0.8-0.8,1.3-1.1c6.2-4,14.2-6,24.1-6c1.9,0,4,0.1,6.3,0.3C213.7,269.3,217.6,271.4,221.5,275.3z"
			/>
		<path d="M300.8,263.2c0,0.3,0.1,0.6,0.1,0.9c0,0.9-0.3,1.8-0.8,2.6c-0.7,1-1.7,1.8-2.8,2.1c-0.3,0.1-0.7,0.2-1,0.2
			c-0.6,0-1.3-0.1-1.9-0.3c-3.1-0.6-6.2-0.9-9.4-0.8c-9.1,0-22,2.2-38.4,6.6c2.6,0.1,5,1.2,6.8,3c2.7,2.7,4.1,7.1,4.4,13.2l4.4-4.4
			c0.2-0.2,0.5-0.3,0.7-0.4c4-1.4,8.2-2.1,12.4-2.2c2.4-0.1,4.8,0.6,6.7,2.1c2.9,2.3,4.6,3.9,5.1,4.7c0.1,0.1,0.2,0.3,0.3,0.5
			c1.3,3.7,2.1,7.5,2.4,11.5c0.1,1.3,0.2,2.7,0.2,4c0,6.5-1.4,11.7-4.1,15.8c-0.9,1.3-1.4,2-1.7,2.3l-0.4,0.3
			c-0.6,0.4-1.4,0.7-2.2,0.7c-0.5,0-0.9-0.1-1.4-0.2c-1.2-0.3-2.1-1.1-2.6-2.3c-0.3-0.5-0.4-1.1-0.4-1.8c0-0.5,0.1-0.9,0.2-1.4
			c0.1-0.2,0.1-0.3,0.2-0.4c0.4-1.1,1.2-2,2.3-2.5c0.3-0.2,0.6-0.4,0.8-0.6c1.5-1.5,2.3-4.5,2.3-8.9c0-1.2,0-2.4-0.1-3.6
			c-0.2-3.5-2.3-6.5-5.5-7.9c-1.3-0.6-2.7-0.8-4.1-0.8c-2.8,0.1-5.5,0.6-8.1,1.5c-1,0.3-1.8,0.8-2.5,1.5c-0.8,0.8-1.4,1.6-1.9,2.6
			c-1.5,2.9-2.6,5.5-3.6,7.9c-0.3,4-1.2,7.9-2.7,11.7c-0.4,1-1.1,1.9-2.1,2.4c-1,0.5-2.1,0.7-3.2,0.7c-0.2,0-0.7,0-1.5-0.1
			c-1.1,0-2.2-0.6-2.8-1.5c-0.7-0.8-1-1.9-0.9-2.9c0-1.7,0.9-4.6,2.5-8.5c0.7-4.7,1.1-9.4,1-14.2c0-1.2,0-2.6-0.1-4
			c-0.1-3.8-0.9-6.5-2.5-8c-0.1-0.1-0.2-0.2-0.4-0.3c-0.6-0.2-1.2-0.3-1.8-0.3c-0.4,0-0.7,0-1.1,0.1c-0.5,0-1,0.1-1.4,0.1
			c-0.8,0.1-1.5-0.2-2.1-0.7c-0.4-0.4-0.6-0.9-0.6-1.4c0-0.4,0.1-0.9,0.4-1.2c0.3-0.5,0.5-0.8,0.6-0.9v-0.1c0-1.1,0.4-2.2,1.1-3
			l0.1-0.2l-1.5,0.4c-0.5,0.1-1.1,0.2-1.7,0.2c-0.6,0-1.1-0.1-1.7-0.3c-1.1-0.5-2-1.5-2.3-2.7c-0.1-0.4-0.2-0.8-0.2-1.2
			c0-0.8,0.2-1.5,0.5-2.2c0.5-1.1,1.5-1.9,2.6-2.3c19.1-7.7,34.6-11.6,46.5-11.6c6.7,0,12.2,1.2,16.7,3.6
			C299.7,260.9,300.5,262,300.8,263.2z"/>
		<path d="M317.6,270.8h0.5c4.4,0.1,8.7,0.8,12.9,2.1c1.9,0.4,3.7,1.2,5.3,2.3c0.5,0.4,0.8,0.8,1.2,1.3c0.9,1.5,1.3,3.3,1.2,5
			c0,2.7-1.1,5.9-3.4,9.8c-1.2,2-1.8,3.5-1.8,4.5c0,0.1,0,0.2,0.1,0.3c0.5,2.4,2,3.8,4.7,4.2c3.7,0.5,7.1,2.5,9.3,5.5
			c1.5,1.8,2.3,4.1,2.4,6.4c0,2-0.7,4-2.1,5.5c-3,3.3-7.5,5.4-13.5,6.3c-5.3,0.8-10.6,1.2-15.9,1.2c-3.3,0-6.7-0.2-10-0.5
			c-1.1-0.1-2.2-0.6-3-1.5c-0.6-0.7-1-1.7-0.9-2.6v-0.3c0.1-0.2,0.2-0.4,0.2-0.6c0.1-0.2,0.1-0.4,0.2-0.7c0.3-0.5,0.7-0.9,1.2-1.2
			c0.9-0.8,2.1-1.2,3.3-1.2c9.9,0,17.4-0.5,22.3-1.4c3.9-0.7,6.4-1.4,7.5-2.2c0.1-0.1,0.1-0.1,0.1-0.2c0.2-0.2,0.3-0.4,0.3-0.6
			c-0.1,0-0.1,0-0.2-0.1c-1.2-0.9-2.5-1.5-4-1.8c-7.1-1.7-11.2-5.6-12.2-11.7c-0.1-0.6-0.1-1.3-0.1-1.9c0-3.3,1.3-6.8,3.9-10.4
			c0.8-1,1.5-2.1,2-3.4v-0.1c-0.6-0.9-1.3-1.8-2-2.6c-2.1-1.6-4.7-2.5-7.4-2.5c-3.7,0-7.9,1.5-12.5,4.4l-1.5,0.9
			c-0.1,0.2-0.3,0.4-0.6,0.4c-0.5,0.2-0.9,0.3-1.2,0.4c-0.1,0-0.2,0.1-0.4,0.1c-0.1,0-0.3,0.1-0.4,0.1h-0.3c-0.5,0-1-0.1-1.4-0.4
			c-1.1-0.7-1.8-1.8-1.8-3.1v-0.3c0-0.6,0.2-1.1,0.4-1.6c0.2-0.3,0.4-0.5,0.6-0.8C304.4,273.4,310.1,270.8,317.6,270.8z"/>
		<path d="M372.5,314.2c-1.8,1.7-4.6,1.8-6.4,0.1l-0.1-0.1c-0.7-0.9-1.1-2-1-3.1c0.2-5.2,0.2-9,0.2-11.4c0-9.7-0.6-16.9-1.9-21.3
			c-0.2-0.5-0.3-1.1-0.3-1.6c0-0.6,0.1-1.2,0.4-1.7c0.3-1,1.1-1.9,2-2.5l0.5-0.3c1.1-0.4,2.2-0.6,3.3-0.6c0.7,0,1.4,0.1,2.1,0.3
			c1.2,0.3,2.2,1.1,2.8,2.2c1.1,2.3,1.7,6.5,1.7,12.4c-0.1,8.3-0.7,16.5-1.7,24.7C373.9,312.3,373.3,313.4,372.5,314.2z"/>
		<path d="M441.8,299.1c0,5.1-1.9,10.6-5.7,16.4c-4.5,7.1-10.6,10.6-18.2,10.6c-2.3,0-4.5-0.3-6.7-0.9c-1.9-0.4-3.7-1.2-5.4-2.3
			c-1.4-1-2.6-2.2-3.6-3.7c-0.8-1.4-1.5-2.8-1.9-4.4c-0.4-1.5-0.6-3.1-0.6-4.7c0-1.6,0-2.8,0.1-3.6c0.5-7.1,4.1-13.7,9.9-17.9
			c1.9-1.5,3.9-2.7,6.1-3.8c-4.3-1.7-8.8-2.7-13.4-2.7c-3.4,0-6.8,0.9-9.8,2.5c-0.5,0.3-1,0.5-1.6,0.7c-0.1,0.1-0.2,0.1-0.4,0.1
			c-0.1,0-0.3,0-0.4,0h-0.4c-2.2,0-4.1-1.8-4.1-4.1c0-0.4,0-0.7,0.2-1.1c0.3-1.2,0.9-2.2,1.9-2.9c2.6-2,5.5-3.5,8.6-4.6
			c2.2-0.8,4.5-1.3,6.8-1.4h1.2h2c0.6,0,1.5,0,2.7,0.1c1.1,0.1,2.3,0.3,3.4,0.5c1.4,0.3,2.7,0.7,4,1.2c1.6,0.5,3.2,1.2,4.7,1.9
			c1.8,0.9,3.5,1.8,5.3,2.8c2,1.2,4,2.6,5.8,4C438.6,286.8,441.8,292.5,441.8,299.1z M428.1,292c-0.1,0.1-0.1,0.1-0.2,0.1
			c-0.7,0.3-1.4,0.5-2.2,0.5c-0.4,0-0.8,0-1.2-0.1c-0.9-0.2-1.8-0.3-2.8-0.3c-2.5,0.1-4.9,1-6.7,2.7c-3.6,3-5.5,6.5-5.5,10.6v0.9
			c0.3,6.1,1.8,9.6,4.6,10.3c1.7,0.5,3.5,0.8,5.3,0.8c3.7,0.2,7.2-2,8.6-5.5c2.1-4.4,3.2-8.2,3.2-11.4
			C431.4,297.3,430.2,294.3,428.1,292L428.1,292z"/>
	</g>
	<g>
		<path class="st5" d="M221.5,275.3c2.6,2.5,4.2,5.9,4.2,9.5c0,0.4,0,0.7-0.1,1.1c-0.3,3.9-2.7,7.6-7.2,11.1
			c-2.2,1.7-6.3,3.5-12.2,5.5c-4.5,1.4-9.2,2.3-13.9,2.6c0,1.6,0.1,3.3,0.4,4.9l1.9,2.1c2.6,3.4,5.4,5.2,8.4,5.2
			c1.1,0,2.2-0.2,3.2-0.6c11.5-3.8,19.2-7.5,23.2-11c0.3-0.3,0.6-0.5,1-0.7c0.1,0,0.3-0.1,0.4-0.2l1.4-0.4c0.5-0.2,1.1-0.3,1.7-0.3
			c0.7,0,1.3,0.2,1.8,0.6c0.2,0.2,0.5,0.4,0.7,0.7c0.3,0.4,0.5,0.9,0.5,1.4c0,0.1,0,0.2,0,0.3c0,0.2,0,0.3,0,0.3
			c-0.2,1-0.7,1.9-1.5,2.6c-9.5,9.8-19,15.4-28.5,16.8c-0.7,0.1-1.4,0.1-2.1,0.2c-5.1,0-10.4-2.8-15.9-8.3c-0.7-0.7-1.5-1.6-2.3-2.7
			c-1.7-2.1-2.8-5.9-3.3-11.1c-1.1-0.1-2.2-0.4-3.3-0.9c-0.7-0.3-1.4-0.8-2-1.4c-0.3-0.3-0.5-0.7-0.7-1.1c-0.1-0.1-0.1-0.2-0.2-0.4
			c-0.2-0.5-0.4-1-0.6-1.5c-0.1-0.4-0.1-0.8-0.1-1.2c0-0.5,0.1-1,0.2-1.5c0.3-1.1,0.8-2,1.4-2.9c0.4-0.6,0.9-1.2,1.5-1.7
			c0.8-0.8,1.6-1.5,2.5-2.1c1.3-0.8,2.7-1.3,4.2-1.4h0.3c1.4,0,2.6,0.6,3.6,1.6c0.4,0.4,0.8,1,1,1.5c0.6,1.3,1,2.8,1,4.3
			c4.2-0.2,8.4-0.8,12.4-1.8c3.9-0.9,6.6-2.2,8.2-3.9c0.7-0.7,1.2-1.5,1.5-2.4c0.2-0.7,0.3-1.4,0.3-2.2c0-1.4-0.6-2.8-1.6-3.7
			c-1.7-1.6-3.8-2.7-6.1-3.2c-3.1-0.9-6.3-1.4-9.5-1.4c-5,0-9.8,1.3-14.2,3.7c-0.6,0.3-1.4,0.5-2.1,0.5c-0.4,0-0.8,0-1.2-0.1
			c-0.4-0.1-0.9-0.2-1.3-0.4c-0.6-0.3-1.1-0.8-1.3-1.4c-0.1-0.1-0.1-0.1-0.1-0.2c-0.1-0.4-0.2-0.8-0.2-1.2c0-0.5,0.1-0.9,0.3-1.3
			c0.2-0.5,0.5-1,0.9-1.4c0.4-0.4,0.8-0.8,1.3-1.1c6.2-4,14.2-6,24.1-6c1.9,0,4,0.1,6.3,0.3C213.7,269.3,217.6,271.4,221.5,275.3z"
			/>
		<path class="st5" d="M300.8,263.2c0,0.3,0.1,0.6,0.1,0.9c0,0.9-0.3,1.8-0.8,2.6c-0.7,1-1.7,1.8-2.8,2.1c-0.3,0.1-0.7,0.2-1,0.2
			c-0.6,0-1.3-0.1-1.9-0.3c-3.1-0.6-6.2-0.9-9.4-0.8c-9.1,0-22,2.2-38.4,6.6c2.6,0.1,5,1.2,6.8,3c2.7,2.7,4.1,7.1,4.4,13.2l4.4-4.4
			c0.2-0.2,0.5-0.3,0.7-0.4c4-1.4,8.2-2.1,12.4-2.2c2.4-0.1,4.8,0.6,6.7,2.1c2.9,2.3,4.6,3.9,5.1,4.7c0.1,0.1,0.2,0.3,0.3,0.5
			c1.3,3.7,2.1,7.5,2.4,11.5c0.1,1.3,0.2,2.7,0.2,4c0,6.5-1.4,11.7-4.1,15.8c-0.9,1.3-1.4,2-1.7,2.3l-0.4,0.3
			c-0.6,0.4-1.4,0.7-2.2,0.7c-0.5,0-0.9-0.1-1.4-0.2c-1.2-0.3-2.1-1.1-2.6-2.3c-0.3-0.5-0.4-1.1-0.4-1.8c0-0.5,0.1-0.9,0.2-1.4
			c0.1-0.2,0.1-0.3,0.2-0.4c0.4-1.1,1.2-2,2.3-2.5c0.3-0.2,0.6-0.4,0.8-0.6c1.5-1.5,2.3-4.5,2.3-8.9c0-1.2,0-2.4-0.1-3.6
			c-0.2-3.5-2.3-6.5-5.5-7.9c-1.3-0.6-2.7-0.8-4.1-0.8c-2.8,0.1-5.5,0.6-8.1,1.5c-1,0.3-1.8,0.8-2.5,1.5c-0.8,0.8-1.4,1.6-1.9,2.6
			c-1.5,2.9-2.6,5.5-3.6,7.9c-0.3,4-1.2,7.9-2.7,11.7c-0.4,1-1.1,1.9-2.1,2.4c-1,0.5-2.1,0.7-3.2,0.7c-0.2,0-0.7,0-1.5-0.1
			c-1.1,0-2.2-0.6-2.8-1.5c-0.7-0.8-1-1.9-0.9-2.9c0-1.7,0.9-4.6,2.5-8.5c0.7-4.7,1.1-9.4,1-14.2c0-1.2,0-2.6-0.1-4
			c-0.1-3.8-0.9-6.5-2.5-8c-0.1-0.1-0.2-0.2-0.4-0.3c-0.6-0.2-1.2-0.3-1.8-0.3c-0.4,0-0.7,0-1.1,0.1c-0.5,0-1,0.1-1.4,0.1
			c-0.8,0.1-1.5-0.2-2.1-0.7c-0.4-0.4-0.6-0.9-0.6-1.4c0-0.4,0.1-0.9,0.4-1.2c0.3-0.5,0.5-0.8,0.6-0.9v-0.1c0-1.1,0.4-2.2,1.1-3
			l0.1-0.2l-1.5,0.4c-0.5,0.1-1.1,0.2-1.7,0.2c-0.6,0-1.1-0.1-1.7-0.3c-1.1-0.5-2-1.5-2.3-2.7c-0.1-0.4-0.2-0.8-0.2-1.2
			c0-0.8,0.2-1.5,0.5-2.2c0.5-1.1,1.5-1.9,2.6-2.3c19.1-7.7,34.6-11.6,46.5-11.6c6.7,0,12.2,1.2,16.7,3.6
			C299.7,260.9,300.5,262,300.8,263.2z"/>
		<path class="st5" d="M317.6,270.8h0.5c4.4,0.1,8.7,0.8,12.9,2.1c1.9,0.4,3.7,1.2,5.3,2.3c0.5,0.4,0.8,0.8,1.2,1.3
			c0.9,1.5,1.3,3.3,1.2,5c0,2.7-1.1,5.9-3.4,9.8c-1.2,2-1.8,3.5-1.8,4.5c0,0.1,0,0.2,0.1,0.3c0.5,2.4,2,3.8,4.7,4.2
			c3.7,0.5,7.1,2.5,9.3,5.5c1.5,1.8,2.3,4.1,2.4,6.4c0,2-0.7,4-2.1,5.5c-3,3.3-7.5,5.4-13.5,6.3c-5.3,0.8-10.6,1.2-15.9,1.2
			c-3.3,0-6.7-0.2-10-0.5c-1.1-0.1-2.2-0.6-3-1.5c-0.6-0.7-1-1.7-0.9-2.6v-0.3c0.1-0.2,0.2-0.4,0.2-0.6c0.1-0.2,0.1-0.4,0.2-0.7
			c0.3-0.5,0.7-0.9,1.2-1.2c0.9-0.8,2.1-1.2,3.3-1.2c9.9,0,17.4-0.5,22.3-1.4c3.9-0.7,6.4-1.4,7.5-2.2c0.1-0.1,0.1-0.1,0.1-0.2
			c0.2-0.2,0.3-0.4,0.3-0.6c-0.1,0-0.1,0-0.2-0.1c-1.2-0.9-2.5-1.5-4-1.8c-7.1-1.7-11.2-5.6-12.2-11.7c-0.1-0.6-0.1-1.3-0.1-1.9
			c0-3.3,1.3-6.8,3.9-10.4c0.8-1,1.5-2.1,2-3.4v-0.1c-0.6-0.9-1.3-1.8-2-2.6c-2.1-1.6-4.7-2.5-7.4-2.5c-3.7,0-7.9,1.5-12.5,4.4
			l-1.5,0.9c-0.1,0.2-0.3,0.4-0.6,0.4c-0.5,0.2-0.9,0.3-1.2,0.4c-0.1,0-0.2,0.1-0.4,0.1c-0.1,0-0.3,0.1-0.4,0.1h-0.3
			c-0.5,0-1-0.1-1.4-0.4c-1.1-0.7-1.8-1.8-1.8-3.1v-0.3c0-0.6,0.2-1.1,0.4-1.6c0.2-0.3,0.4-0.5,0.6-0.8
			C304.4,273.4,310.1,270.8,317.6,270.8z"/>
		<path class="st5" d="M372.5,314.2c-1.8,1.7-4.6,1.8-6.4,0.1l-0.1-0.1c-0.7-0.9-1.1-2-1-3.1c0.2-5.2,0.2-9,0.2-11.4
			c0-9.7-0.6-16.9-1.9-21.3c-0.2-0.5-0.3-1.1-0.3-1.6c0-0.6,0.1-1.2,0.4-1.7c0.3-1,1.1-1.9,2-2.5l0.5-0.3c1.1-0.4,2.2-0.6,3.3-0.6
			c0.7,0,1.4,0.1,2.1,0.3c1.2,0.3,2.2,1.1,2.8,2.2c1.1,2.3,1.7,6.5,1.7,12.4c-0.1,8.3-0.7,16.5-1.7,24.7
			C373.9,312.3,373.3,313.4,372.5,314.2z"/>
		<path class="st5" d="M441.8,299.1c0,5.1-1.9,10.6-5.7,16.4c-4.5,7.1-10.6,10.6-18.2,10.6c-2.3,0-4.5-0.3-6.7-0.9
			c-1.9-0.4-3.7-1.2-5.4-2.3c-1.4-1-2.6-2.2-3.6-3.7c-0.8-1.4-1.5-2.8-1.9-4.4c-0.4-1.5-0.6-3.1-0.6-4.7c0-1.6,0-2.8,0.1-3.6
			c0.5-7.1,4.1-13.7,9.9-17.9c1.9-1.5,3.9-2.7,6.1-3.8c-4.3-1.7-8.8-2.7-13.4-2.7c-3.4,0-6.8,0.9-9.8,2.5c-0.5,0.3-1,0.5-1.6,0.7
			c-0.1,0.1-0.2,0.1-0.4,0.1c-0.1,0-0.3,0-0.4,0h-0.4c-2.2,0-4.1-1.8-4.1-4.1c0-0.4,0-0.7,0.2-1.1c0.3-1.2,0.9-2.2,1.9-2.9
			c2.6-2,5.5-3.5,8.6-4.6c2.2-0.8,4.5-1.3,6.8-1.4h1.2h2c0.6,0,1.5,0,2.7,0.1c1.1,0.1,2.3,0.3,3.4,0.5c1.4,0.3,2.7,0.7,4,1.2
			c1.6,0.5,3.2,1.2,4.7,1.9c1.8,0.9,3.5,1.8,5.3,2.8c2,1.2,4,2.6,5.8,4C438.6,286.8,441.8,292.5,441.8,299.1z M428.1,292
			c-0.1,0.1-0.1,0.1-0.2,0.1c-0.7,0.3-1.4,0.5-2.2,0.5c-0.4,0-0.8,0-1.2-0.1c-0.9-0.2-1.8-0.3-2.8-0.3c-2.5,0.1-4.9,1-6.7,2.7
			c-3.6,3-5.5,6.5-5.5,10.6v0.9c0.3,6.1,1.8,9.6,4.6,10.3c1.7,0.5,3.5,0.8,5.3,0.8c3.7,0.2,7.2-2,8.6-5.5c2.1-4.4,3.2-8.2,3.2-11.4
			C431.4,297.3,430.2,294.3,428.1,292L428.1,292z"/>
	</g>
</g>
</svg>
