<?xml version="1.0" encoding="utf-8"?>
<!-- Generator: Adobe Illustrator 24.2.0, SVG Export Plug-In . SVG Version: 6.00 Build 0)  -->
<svg version="1.1" id="Layer_2_1_" xmlns="http://www.w3.org/2000/svg" xmlns:xlink="http://www.w3.org/1999/xlink" x="0px" y="0px"
	 viewBox="0 0 163.4 233" style="enable-background:new 0 0 163.4 233;" xml:space="preserve">
<style type="text/css">
	.st0{display:none;fill:#707171;}
	.st1{stroke:#1F1500;stroke-width:1.6;stroke-miterlimit:10;}
	.st2{fill:#9D3700;stroke:#9D3700;stroke-miterlimit:10;}
	.st3{fill:#9D5900;stroke:#9D3700;stroke-width:0.6;stroke-miterlimit:10;}
	.st4{fill:#040015;stroke:#000000;stroke-width:0.3;stroke-miterlimit:10;}
	.st5{fill:#9D6100;}
</style>
<path class="st0" d="M86,100.7c0.1-1.9-3.3,9.2-4.7,11c-4,4.4-4.9,11.5-9.8,15.2c-7.9,4.2-17.2,4.7-25.8,2.6c-4-1.3-7.1-4.6-9.1-8.3
	c-1.9-3.8-0.6-8.1-0.9-12.1c-0.5-4.4-1.8-8.5-2.2-13c4.8-3.8,11.3-3.5,17-3.7c6.9,0.4,14.1,0.7,20.4,4
	C75.6,98.8,80.6,101.2,86,100.7"/>
<path class="st1" d="M123.4,140.9c0.6-3.5,3-6.4,5.9-8.9c-1.5,8.4,1.2,16.8,5.1,24.5c4.4,7.7-0.5,16-4.7,23
	c-1.3-1.7-2.8-3.4-4.1-5.1c0.3,5.7,0.7,11.4-0.2,17.1c-1.1,4.3-3.2,8.5-6.6,12c-1.9-0.8-3.6-1.8-5.4-2.8c-0.5,3.3-1.6,6.5-4,9.2
	c-0.2-2-0.4-4.1-0.6-6.2c-4.6,5-8,10.7-12.9,15.4c-0.9,1.4-0.2-4.2-1.6-2.6c-1.9,2.7-3.5,5.7-6.2,7.9c-4.3,4.1-10.3,6.6-16.2,8.7
	h-1.4c3.1-3.8,6.9-8.5,4.8-13.2c-2.7-4.2-8.6-6-13.5-7.7c0.4,2.8,1.4,5.5,2.2,8.2c-4.2-2.6-7.1-6.3-9.3-10.1
	c-2.8-4.8-5.9-9.4-8.1-14.4c-0.5-0.2-1.3-0.6-1.8-0.8c1.8-3.2,3-7.6-0.6-10.5c-1.6-2.1-4.4-1.3-6.7-0.8c0-3.7-0.2-7.4,0.8-11
	c0.6-2.7,2-5.4,0.5-8c-1.8-3.8-3.9-7.6-4-11.8c-0.1-5.7-0.3-11.5,0.7-17.1c3.2,4.1,2.8,9.5,6.3,13.5c1.6,2.2,5.1,2.1,7.7,1.2
	c7.3-2.7,12.8-7.9,20.4-10.1c3.8-1,7.3,1.1,10.5,2.7c3.7-3.2,9-5.1,14.3-4c8.6,0.8,13.9,8.3,22.5,8.7
	C122,148,122.7,143.7,123.4,140.9 M72.9,156.5c-4.8,2-10.1,2.5-15,3.9c4.9,5.5,14.5,6.3,22,4.9c4.7-0.7,9.3,0.3,13.9,0.5
	c5.8-0.6,10.2-4.4,13.1-8.3c-9,0.8-18-1.7-25.1-6.3C79.1,153.3,76.3,155.1,72.9,156.5z"/>
<g id="glasses">
	<polygon class="st2" points="125.8,116.9 133.7,116.9 135.9,113.9 137,114.5 134.6,117.9 134.4,119.3 132.8,120.2 125.9,120.2 	"/>
	<polygon class="st2" points="40.8,117.3 33.1,117.3 30.8,114.4 29.7,115 32.2,118.3 32.2,119.8 33.9,120.6 40.9,120.6 	"/>
	<path class="st3" d="M91.2,117.8l-2.7-4.5c-0.6-1-1.7-1.6-2.8-1.7l-2.8-0.2l-2.8,0.1c-1.1,0.1-2.2,0.7-2.7,1.7l-2.6,4.5l0.7-5.2
		l1.1-1.1c1.1-1.1,2.7-1.8,4.3-1.7h4c1.6,0,3.2,0.6,4.4,1.7l1.1,1L91.2,117.8z"/>
	<path class="st3" d="M126.8,116.9c0,0.2,0,0.3,0,0.5l0,0c0,1.4-0.2,2.7-0.3,4c-0.1,0.8-0.3,1.6-0.4,2.4l0,0
		c-0.5,2.5-1.5,4.9-2.6,7.1c-0.1,0.3-0.4,0.7-0.6,0.9c-1.8,2-2.8,2.4-5.9,3.3c-0.3,0.1-1.6,0.5-2.5,0.5c-1.9,0.1-3.8,0.2-5.8,0.2
		c-1.6,0-3.2,0-4.8-0.2c-2.3-0.1-4.4-0.8-6.3-2.1c-4.8-3.3-7.7-8.9-8.6-15.3c-0.1-0.4-0.1-0.7-0.3-1.5c-0.2-1.3-0.2-2-0.2-3.1
		c0-2.8,1.6-5.3,3.9-6.5h0.1c1.3-0.3,2.7-0.4,4-0.7c3.6-0.6,7.3-0.8,11-0.9c3.8,0,6.3,0,10.4,0.3c1.5,0.1,1.7,0.2,2.9,0.5
		c1.7,0.5,2.7,0.9,2.9,1c0.7,0.3,1.1,0.5,2.3,2.2c1.1,1.6,0.7,3.9,0.8,5.9C126.8,116.1,126.9,116.5,126.8,116.9z"/>
	<path class="st3" d="M38.9,117c0,0.2,0,0.3,0.1,0.5l0,0c0.1,1.3,0.1,2.7,0.3,4c0.1,0.8,0.2,1.6,0.5,2.4l0,0
		c0.6,2.5,1.4,4.9,2.6,7.1c0.2,0.3,0.4,0.6,0.6,0.9c1.8,1.9,2.9,2.4,5.9,3.3c0.3,0.1,1.6,0.5,2.5,0.4c1.9,0.1,3.9,0.2,5.8,0.2
		c1.6,0,3.2-0.1,4.7-0.1c2.2-0.2,4.4-0.9,6.3-2.1c4.7-3.4,7.6-8.9,8.5-15.4c0-0.4,0.2-0.7,0.3-1.6c0.2-1.3,0.2-2,0.2-3.1
		c0-2.8-1.6-5.3-4-6.4h-0.1c-1.3-0.2-2.7-0.5-4-0.7c-3.6-0.4-7.3-0.7-11.1-0.8c-3.8,0-6.3,0.1-10.5,0.4c-1.5,0.1-1.7,0.1-2.9,0.5
		c-1.5,0.6-2.5,1-2.7,1c-0.6,0.2-1.1,0.5-2.2,2.3c-1.1,1.6-0.7,3.9-0.8,5.9C39,116.1,39,116.6,38.9,117z"/>
	<path class="st4" d="M125,117.3c0,0.1,0,0.3,0,0.4l0,0c0,1.2-0.1,2.4-0.2,3.6c-0.1,0.7-0.2,1.5-0.4,2.2l0,0
		c-0.5,2.3-1.3,4.4-2.3,6.4c-0.1,0.3-0.4,0.6-0.6,0.8c-1.6,1.8-2.5,2.2-5.3,2.9c-0.3,0.1-1.4,0.4-2.2,0.5c-1.7,0.1-3.4,0.2-5.2,0.2
		c-1.4,0-2.9-0.1-4.3-0.1c-2-0.1-3.9-0.8-5.6-1.8c-4.3-2.9-6.9-7.9-7.7-13.7c-0.1-0.4-0.1-0.6-0.3-1.4c-0.2-1.1-0.2-1.8-0.2-2.7
		c-0.1-2.5,1.5-4.7,3.6-5.8c0,0,0,0,0.1,0c1.2-0.2,2.4-0.5,3.6-0.6c3.3-0.5,6.5-0.7,9.9-0.8c3.4,0,5.6,0,9.3,0.3
		c1.3,0.1,1.6,0.2,2.6,0.4c1.5,0.4,2.4,0.8,2.5,0.8c0.6,0.3,1,0.4,2,2c1,1.4,0.7,3.5,0.8,5.3C125.1,116.6,125,116.9,125,117.3z"/>
	<path class="st4" d="M40.9,117c0,0.1,0,0.3,0,0.4l0,0c0,1.2,0.2,2.4,0.3,3.5c0.1,0.7,0.3,1.4,0.4,2.1l0,0c0.5,2.3,1.3,4.3,2.4,6.4
		c0.2,0.3,0.4,0.5,0.6,0.9c1.5,1.8,2.5,2.1,5.3,2.9c0.3,0.1,1.4,0.3,2.2,0.4c1.7,0.2,3.5,0.1,5.2,0.2c1.4,0,2.8,0,4.2-0.2
		c2-0.1,4-0.7,5.6-2c4.3-3,6.8-8,7.6-13.7c0-0.4,0.2-0.7,0.2-1.4c0.2-1.2,0.2-1.8,0.2-2.8c-0.1-2.5-1.5-4.8-3.6-5.8h-0.1
		c-1.2-0.2-2.4-0.4-3.6-0.5c-3.3-0.4-6.6-0.6-9.9-0.6c-3.4,0-5.6,0.1-9.4,0.4c-1.2,0.2-1.4,0.2-2.5,0.5c-1.5,0.5-2.4,0.9-2.6,0.9
		c-0.6,0.2-0.9,0.4-2,2c-0.9,1.4-0.6,3.5-0.7,5.3C41,116.3,41,116.6,40.9,117z"/>
</g>
<path id="path4_1_" class="st5" d="M163.7,69.1c0.1,13.7-5.3,26.2-13.9,35.4c0,0,0,0-0.1,0.1c-0.6,0.7-1.1,1.5-1.8,2.2
	c0-0.1-0.1-0.2-0.1-0.4c-6.5-28.3-27.4-50.9-54.4-60.1c-1.3-0.4-2.4-0.8-3.7-1.2c4.3-0.8,8.7-1.2,13.1-1.3h0.1c2.2,0,4.4,0,6.6,0.3
	h0.1c0.5-0.1,1,0,1.5-0.1c0.2,0,0.4,0,0.6,0c12.6,0.1,24.8,3,35.6,8c-2.7-1.6-5.4-2.9-8.2-4c-7.6-3.3-15.9-5.4-24.3-6.3
	c-0.1,0-0.1,0-0.2,0c-2.8-0.2-5.7-0.4-8.4-0.4c-5.9,0-12,0.7-17.7,1.9c-0.3,0.5-0.6,0.9-0.9,1.4l0,0c-0.2,0.2-0.5,0.6-0.7,0.8
	c-0.1,0.2-0.1,0.2-0.2,0.4c-0.2,0.3-0.4,0.6-0.7,0.8c0,0.1-0.1,0.1-0.1,0.2c0.9,0.3,1.8,0.5,2.6,0.8c0.7,0.3,1.3,0.4,1.8,0.7
	c20.8,6.8,38.1,21.7,48,41c0.1,0.1,0.1,0.1,0.2,0.2c0.2,0.6,0.6,1.2,0.8,1.8c0.2,0.3,0.2,0.6,0.4,0.8c0.1,0.1,0.1,0.2,0.2,0.3
	c2.3,5,4.1,10.4,5.3,16c0.1,0.2,0.2,0.5,0.1,0.7c0.1,0.3,0.1,0.6,0.2,0.8c0.1,0.4,0.1,0.9,0.3,1.4c-3.7,4.2-8.1,7.8-13,10.5
	c-0.3-0.8-0.6-1.7-1.1-2.5c0-0.1-0.1-0.2-0.2-0.3c-0.3-0.7-0.6-1.4-0.9-2.1c-5.4-12.7-12.7-24.2-21.6-34.5c-0.2-0.3-0.5-0.6-0.8-1
	c-0.5-0.7-1.2-1.4-1.7-2.1c-0.5-0.6-1-1.1-1.5-1.5c-0.9-0.9-1.8-2-2.7-2.9c-0.5-0.5-0.9-0.9-1.4-1.3c-0.3-0.3-0.5-0.6-0.8-0.8
	c-0.4-0.3-0.6-0.7-1-1c-0.2-0.1-0.4-0.3-0.5-0.6c-0.2-0.2-0.5-0.3-0.6-0.6c-0.3-0.3-0.6-0.5-0.8-0.8c-0.1,0-0.1-0.1-0.2-0.1
	c-0.2-0.2-0.5-0.4-0.6-0.7c-0.3-0.3-0.6-0.5-0.9-0.8c-0.2-0.1-0.3-0.3-0.5-0.4c-0.3-0.2-0.5-0.4-0.6-0.6c0,0,0,0-0.1,0
	c-0.6-0.5-1.1-0.9-1.6-1.4c-0.6-0.5-1.1-0.9-1.7-1.4s-1.1-0.9-1.7-1.3c-0.6-0.5-1.1-0.9-1.7-1.3c-0.8-0.6-1.5-1.1-2.3-1.7
	c-0.2-0.1-0.5-0.3-0.8-0.5c-0.4-0.3-0.8-0.6-1.1-0.8c-0.4-0.2-0.7-0.5-1-0.7c-0.6-0.5-1.1-0.8-1.8-1.2L80.5,57
	c-6.6,6.1-12.9,12.6-18.7,19.5c-0.7,0.8-1.5,1.8-2.2,2.6c-0.1,0.2-0.2,0.2-0.2,0.4c-0.3,0.4-0.6,0.8-0.9,1.1l-0.2,0.1
	c-0.5,0.7-1,1.3-1.5,2c-0.4,0.5-0.8,0.8-1.1,1.4c-5.1,6.5-9.7,13-13.9,19.9c-4.3,6.8-8.1,13.9-11.4,21.2c-0.5-0.4-0.8-0.8-1.2-1.1
	c-1.1-1.1-2.2-2.2-3.2-3.2c-0.2-0.1-0.2-0.2-0.2-0.2c-0.5-0.5-1-1.2-1.6-1.8c-0.2-0.1-0.2-0.2-0.2-0.2c-0.2-0.1-0.4-0.3-0.5-0.5l0,0
	c-0.1-0.1-0.1-0.1-0.2-0.2c-0.5-0.4-0.9-1-1.4-1.6c-0.2-0.2-0.4-0.4-0.5-0.7c-0.2-0.2-0.4-0.4-0.5-0.7c0,0,0,0-0.2-0.1
	c-2.5-3-4.8-6.1-7-9.2c-1.1-1.5-2-3-3-4.5c-1.1-1.6-2.1-3.3-3-5.1c-2.6-4.4-4.9-8.9-6.8-13.6c-0.1-0.8-0.1-1.7-0.2-2.6
	c-0.1-0.8-0.1-1.7-0.2-2.5v-5.1c0.1-4.3,0.4-8.4,1.2-12.5c0.2-0.7,0.2-1.3,0.4-2c0.6-3,1.4-5.9,2.1-8.6c2.9-4.6,6.1-9,9.9-12.9
	l0.1-0.1c0.1-0.1,0.2-0.2,0.3-0.3c2.8-2.9,5.7-5.6,8.8-8.1c0.4-0.4,0.8-0.6,1.2-1c0.1,0,0.1-0.2,0.2-0.2
	c13.8-10.5,31-16.8,49.8-16.9c1.8,0,3.6-0.1,5.4,0.1c-8.7,1.7-17,4.7-24.5,9c-4.8,2-9.6,4.3-14,6.8c-0.4,0.3-1,0.6-1.4,0.8
	c-0.1,0-0.2,0.2-0.3,0.3c-5.2,3-10.2,6.4-14.9,10.1c-0.1,0.1-0.2,0.2-0.3,0.3l-0.1,0.1c-5.2,4-9.8,8.4-14.5,13.2
	c5.3-4.7,11-9,17.1-12.9l0.1-0.1c0.1-0.1,0.1-0.1,0.3-0.2c8.8-5.5,18.2-10.1,28.2-13.5c1.1-0.4,2.4-0.7,3.4-1.2
	c0.4-0.2,0.9-0.2,1.2-0.4c1.2-0.4,2.4-0.7,3.7-1.1c9.7-3,18.9-6.8,27.7-11.8C95.5,7,99.3,4.6,103,2.1c0.6-0.4,1.5-1.1,2.2-1.5
	C107,0.3,109,0,111-0.1c6.1,0,11.9,1.7,16.8,4.7c2.2,1.6,4.3,3.2,6.2,5.1c2.6,2.4,4.8,4.6,7.1,7.1c-5.1,0.6-10.1,1.5-15,2.7
	c-3.2,0.7-6.3,1.6-9.4,2.6c-0.1,0-0.2,0.1-0.3,0.1c-3.5,1.1-7.2,2.4-10.5,3.9c-2.3,1-4.4,1.9-6.5,3c-1,0.4-2.2,1-3.2,1.6
	c-0.2,0.5-0.4,0.8-0.6,1.2c2.4-1.1,4.8-2.1,7.2-3c2.1-0.7,4-1.5,6.1-2c0.7-0.2,1.6-0.6,2.3-0.7c3.6-1.1,7.3-2.1,11-2.9
	c0.2-0.1,0.4-0.1,0.6-0.1c3.2-0.7,6.2-1.2,9.4-1.6c0.9-0.1,1.8-0.2,2.6-0.3c5.9,1.4,11.1,4.3,15.4,8.5c0.8,1.4,1.5,2.8,2.3,4.1
	c0.7,1.4,1.3,2.6,2,4c-0.5-0.2-1.1-0.4-1.6-0.6c-2.8-1-5.7-2.1-8.6-2.8c-0.6-0.3-1.2-0.3-1.9-0.5c-2.8-0.8-5.7-1.4-8.6-2
	c-0.9-0.1-1.7-0.1-2.5,0c-1,0-2.1,0-3.2,0c-12.1,0.1-23.9,1.7-35,4.8c-0.4,1-1,1.7-1.6,2.7c8.9-1.9,18.2-3,27.6-3.1
	c7.1,0,14.2,0.6,21.2,1.5c2.5,0.3,4.8,0.9,7.3,1.4c0.5,0.1,1,0.2,1.6,0.4c2.1,0.4,4.2,1,6.3,1.5c0.2,0.2,0.3,0.4,0.4,0.6
	C160.6,49.6,163.6,59,163.7,69.1L163.7,69.1z"/>
</svg>
