<svg id="Capa_1" data-name="Capa 1" xmlns="http://www.w3.org/2000/svg" viewBox="0 0 310.42 310.42">
  <defs>
    <style>
      .cls-1 {
        fill: #9d5900;
      }
    </style>
  </defs>
  <g>
    <path class="cls-1" d="M273.59,215A126,126,0,0,0,95.46,36.83c-41.67,41.67-48,103.63-18.95,152,0,0,2.09,3.5-.73,6.31L11.52,259.42c-12.8,12.79-15.84,30.68-4.5,42l2,2c11.34,11.34,29.22,8.3,42-4.49l64.13-64.13a5.39,5.39,0,0,1,6.45-.87C170,262.94,231.92,256.63,273.59,215ZM118.71,191.71a93.07,93.07,0,1,1,131.62,0A93.17,93.17,0,0,1,118.71,191.71Z" transform="translate(0 0)"/>
    <path class="cls-1" d="M126.75,118.42a13,13,0,0,1-12-18.06A81.93,81.93,0,0,1,222,56.88a13,13,0,1,1-10.13,23.94,55.9,55.9,0,0,0-73.18,29.67A13,13,0,0,1,126.75,118.42Z" transform="translate(0 0)"/>
  </g>
</svg>
