<svg id="svg2" xmlns="http://www.w3.org/2000/svg" viewBox="0 0 514.6 435.13"><defs><style>.cls-1{fill:#9d5900;}</style></defs><circle class="cls-1" cx="246.8" cy="421.33" r="13.8"/><circle class="cls-1" cx="389.7" cy="421.33" r="13.8"/><path class="cls-1" d="M405.8,366.4H219.6A35.23,35.23,0,0,1,187,344L65.2,27.3A22.36,22.36,0,0,0,50.1,13.7a21,21,0,0,0-18.9,3.9A48.85,48.85,0,0,0,13,55.7H0A61.56,61.56,0,0,1,23,7.6,34.08,34.08,0,0,1,53.5,1.3,35.19,35.19,0,0,1,77.3,22.7L199.1,339.3a22,22,0,0,0,20.5,14H405.8a22,22,0,0,0,20.5-14.2l76.1-202.8,12.2,4.6L438.5,343.7A35,35,0,0,1,405.8,366.4Z" transform="translate(0 -0.07)"/></svg>