<?xml version="1.0" encoding="utf-8"?>
<!-- Generator: Adobe Illustrator 24.2.0, SVG Export Plug-In . SVG Version: 6.00 Build 0)  -->
<svg version="1.1" id="svg2" xmlns="http://www.w3.org/2000/svg" xmlns:xlink="http://www.w3.org/1999/xlink" x="0px" y="0px"
	 viewBox="0 0 514.6 435.1" style="enable-background:new 0 0 514.6 435.1;" xml:space="preserve">
<circle cx="246.8" cy="421.3" r="13.8"/>
<circle cx="389.7" cy="421.3" r="13.8"/>
<path d="M405.8,366.3H219.6c-14.4-0.1-27.3-9-32.6-22.4L65.2,27.2c-2.6-6.7-8.2-11.7-15.1-13.6c-6.6-1.8-13.6-0.4-18.9,3.9
	C19.7,26.8,13,40.8,13,55.6H0C0,36.9,8.4,19.2,23,7.5c8.6-6.9,19.9-9.2,30.5-6.3c10.9,2.9,19.8,10.9,23.8,21.4l121.8,316.6
	c3.3,8.4,11.4,14,20.5,14h186.2c9.1,0,17.3-5.7,20.5-14.2l76.1-202.8l12.2,4.6l-76.1,202.8C433.4,357.3,420.4,366.3,405.8,366.3z"/>
<path d="M323.7,70.9v75.5h72.7v19.3h-72.7V242h-20.6v-76.2h-72.7v-19.3h72.7V70.9H323.7z"/>
</svg>
