<?xml version="1.0" encoding="utf-8"?>
<!-- Generator: Adobe Illustrator 24.2.0, SVG Export Plug-In . SVG Version: 6.00 Build 0)  -->
<svg version="1.1" id="Layer_1" xmlns="http://www.w3.org/2000/svg" xmlns:xlink="http://www.w3.org/1999/xlink" x="0px" y="0px"
	 viewBox="0 0 286.3 282.9" style="enable-background:new 0 0 286.3 282.9;" xml:space="preserve">
<style type="text/css">
	.st0{fill:url(#SVGID_1_);}
	.st1{fill:url(#SVGID_2_);}
	.st2{fill:url(#SVGID_3_);}
	.st3{fill:url(#SVGID_4_);}
	.st4{fill:url(#SVGID_5_);}
	.st5{fill:none;}
</style>
<linearGradient id="SVGID_1_" gradientUnits="userSpaceOnUse" x1="16.025" y1="52.3863" x2="269.225" y2="52.3863" gradientTransform="matrix(1 0 0 -1 0 284)">
	<stop  offset="0" style="stop-color:#499400"/>
	<stop  offset="0.4777" style="stop-color:#15BA23"/>
	<stop  offset="0.824" style="stop-color:#068F1F"/>
	<stop  offset="1" style="stop-color:#006A00"/>
</linearGradient>
<path class="st0" d="M269.2,208.4c-24.2,44.3-71.6,74.5-126.1,74.5c-55.3,0-103.3-31-127.1-76.3c9.2-4.2,23.1-6.7,43.8-2.7
	c0,0,92.9-36,172.2-19C231.9,184.8,255.1,192.4,269.2,208.4z"/>
<g id="Layer_2_1_">
	
		<linearGradient id="SVGID_2_" gradientUnits="userSpaceOnUse" x1="-206.4737" y1="778.1036" x2="3.4125" y2="778.1036" gradientTransform="matrix(-1 0 0 1 44.74 -623.29)">
		<stop  offset="0" style="stop-color:#9D3700"/>
		<stop  offset="1.000000e-02" style="stop-color:#A13800"/>
		<stop  offset="0.1" style="stop-color:#BE4200"/>
		<stop  offset="0.2" style="stop-color:#D64B00"/>
		<stop  offset="0.31" style="stop-color:#E85100"/>
		<stop  offset="0.44" style="stop-color:#F55600"/>
		<stop  offset="0.61" style="stop-color:#FD5800"/>
		<stop  offset="0.97" style="stop-color:#FF5900"/>
	</linearGradient>
	<path class="st1" d="M250.6,167.6c0,0-0.4,10.6-62.2-5.3c0,0-31.4-8.6,5.4,57.3c0,0,19.6,34.3-4,37.7c-9.2,1.2-18.3-3.1-23.2-11
		c-6.9-10.9-14.6-32.8-13.5-75.8c0.2-9.5-5.2-18.2-13.8-22.2c-18.1-8.5-51.4-27.8-91.1-67.2c-4.3-4.2-6.8-9.8-7-15.8
		c-0.3-9.1,4.6-18.9,32-9.5c3.5,1.2,6.8,3.3,9.4,6c15.5,15.8,77.9,76.8,139.7,95.3c0.6,0.2,1.1,0.3,1.6,0.4
		C229.1,158.8,255.4,164.9,250.6,167.6z"/>
	
		<linearGradient id="SVGID_3_" gradientUnits="userSpaceOnUse" x1="-168.5065" y1="852.8435" x2="-108.4221" y2="818.1641" gradientTransform="matrix(-1 0 0 1 44.74 -623.29)">
		<stop  offset="0" style="stop-color:#FF8400"/>
		<stop  offset="0.23" style="stop-color:#FC8100"/>
		<stop  offset="0.42" style="stop-color:#F17900"/>
		<stop  offset="0.61" style="stop-color:#DF6B00"/>
		<stop  offset="0.79" style="stop-color:#C65700"/>
		<stop  offset="0.96" style="stop-color:#A63E00"/>
		<stop  offset="1" style="stop-color:#9D3700"/>
	</linearGradient>
	<path class="st2" d="M181.4,161.5c0,0-25.8,2.9-26,56.2c0,0-2.6,38.9,30.3,41.7c0,0,35.2,0.8,3.7-50.8
		C189.4,208.7,170.8,174.8,181.4,161.5z"/>
	
		<linearGradient id="SVGID_4_" gradientUnits="userSpaceOnUse" x1="-164.9979" y1="721.4227" x2="-101.2447" y2="721.4227" gradientTransform="matrix(-1 0 0 1 44.74 -623.29)">
		<stop  offset="0" style="stop-color:#9D3700"/>
		<stop  offset="1.000000e-02" style="stop-color:#A13800"/>
		<stop  offset="0.1" style="stop-color:#BE4200"/>
		<stop  offset="0.2" style="stop-color:#D64B00"/>
		<stop  offset="0.31" style="stop-color:#E85100"/>
		<stop  offset="0.44" style="stop-color:#F55600"/>
		<stop  offset="0.61" style="stop-color:#FD5800"/>
		<stop  offset="0.97" style="stop-color:#FF5900"/>
	</linearGradient>
	<path class="st3" d="M150.7,101.5c2.5,3.7,5.4,6.9,8.8,9.8c4.7,4,12.9,10.5,18.3,12.5c5.4-2.1,13.6-8.6,18.3-12.5
		c3.4-2.8,6.4-6.1,8.9-9.8c10.3-15.5,1.4-23.5-4.6-26.8c-3-1.7-6.5-2.5-10-2.2c-5.5,0.4-10.3,3.8-12.5,8.9c-2.3-5-7.1-8.4-12.6-8.9
		c-3.5-0.3-7,0.5-10.1,2.2C149.3,78,140.4,85.9,150.7,101.5L150.7,101.5z"/>
	
		<linearGradient id="SVGID_5_" gradientUnits="userSpaceOnUse" x1="-133.18" y1="717.1121" x2="-101.7395" y2="717.1121" gradientTransform="matrix(-1 0 0 1 44.74 -623.29)">
		<stop  offset="0" style="stop-color:#9D3700"/>
		<stop  offset="0.27" style="stop-color:#C34400"/>
		<stop  offset="0.56" style="stop-color:#E44F00"/>
		<stop  offset="0.8" style="stop-color:#F85600"/>
		<stop  offset="0.97" style="stop-color:#FF5900"/>
	</linearGradient>
	<path class="st4" d="M177.9,81.4c0,0-13.4,2.5-13.4,33.9c0,0-25.6-15.7-15.9-35C148.7,80.3,164.6,61.6,177.9,81.4z"/>
</g>
<path class="st5" d="M286.3,141.4c0,23.4-5.8,46.4-17,67c-38.4,69.7-126,95-195.6,56.6c-24.5-13.5-44.5-33.8-57.7-58.5
	C5.5,186.5,0,164.1,0,141.4C0,63.3,64.1,0,143.1,0S286.3,63.3,286.3,141.4z"/>
</svg>
