<?xml version="1.0" encoding="utf-8"?>
<!-- Generator: Adobe Illustrator 24.2.0, SVG Export Plug-In . SVG Version: 6.00 Build 0)  -->
<svg version="1.1" id="Layer_1" xmlns="http://www.w3.org/2000/svg" xmlns:xlink="http://www.w3.org/1999/xlink" x="0px" y="0px"
	 viewBox="0 0 286.3 282.9" style="enable-background:new 0 0 286.3 282.9;" xml:space="preserve">
<style type="text/css">
	.st0{fill:url(#SVGID_1_);}
	.st1{fill:url(#SVGID_2_);}
	.st2{fill:url(#SVGID_3_);}
	.st3{fill:url(#SVGID_4_);}
	.st4{fill:url(#SVGID_5_);}
	.st5{fill:url(#SVGID_6_);}
	.st6{fill:url(#SVGID_7_);}
	.st7{fill:#FFFFFF;}
	.st8{fill:none;}
</style>
<linearGradient id="SVGID_1_" gradientUnits="userSpaceOnUse" x1="16.1" y1="52.3803" x2="269.3" y2="52.3803" gradientTransform="matrix(1 0 0 -1 0 284)">
	<stop  offset="0" style="stop-color:#499400"/>
	<stop  offset="0.4777" style="stop-color:#15BA23"/>
	<stop  offset="0.824" style="stop-color:#068F1F"/>
	<stop  offset="1" style="stop-color:#006A00"/>
</linearGradient>
<path class="st0" d="M269.3,208.4c-24.2,44.3-71.6,74.5-126.1,74.5c-55.3,0-103.3-31-127.1-76.3c9.2-4.2,23.1-6.7,43.8-2.7
	c0,0,92.9-36,172.2-19C232,184.8,255.2,192.4,269.3,208.4z"/>
<g id="Layer_2_1_">
	
		<linearGradient id="SVGID_2_" gradientUnits="userSpaceOnUse" x1="128.5177" y1="772.0997" x2="338.5126" y2="772.0997" gradientTransform="matrix(1 0 0 1 -98.2 -623.31)">
		<stop  offset="0" style="stop-color:#9D3700"/>
		<stop  offset="1.000000e-02" style="stop-color:#A13800"/>
		<stop  offset="0.1" style="stop-color:#BE4200"/>
		<stop  offset="0.2" style="stop-color:#D64B00"/>
		<stop  offset="0.31" style="stop-color:#E85100"/>
		<stop  offset="0.44" style="stop-color:#F55600"/>
		<stop  offset="0.61" style="stop-color:#FD5800"/>
		<stop  offset="0.97" style="stop-color:#FF5900"/>
	</linearGradient>
	<path class="st1" d="M30.9,161.6c0,0,0.4,10.6,62.2-5.3c0,0,31.4-8.6-5.4,57.3c0,0-19.6,34.4,4,37.7c9.2,1.2,18.3-3.1,23.2-11
		c6.9-10.9,14.6-32.8,13.5-75.7c-0.2-9.5,5.2-18.2,13.8-22.2c18.1-8.5,51.5-27.8,91.1-67.2c4.3-4.2,6.8-9.8,7-15.8
		c0.3-9.1-4.6-18.9-32-9.5c-3.5,1.2-6.8,3.3-9.4,6c-15.5,15.8-77.9,76.8-139.7,95.3c-0.5,0.2-1.1,0.3-1.6,0.4
		C52.4,152.7,26.1,158.9,30.9,161.6z"/>
	
		<linearGradient id="SVGID_3_" gradientUnits="userSpaceOnUse" x1="166.429" y1="846.8212" x2="226.5453" y2="812.1149" gradientTransform="matrix(1 0 0 1 -98.2 -623.31)">
		<stop  offset="0" style="stop-color:#FF8400"/>
		<stop  offset="0.23" style="stop-color:#FC8100"/>
		<stop  offset="0.42" style="stop-color:#F17900"/>
		<stop  offset="0.61" style="stop-color:#DF6B00"/>
		<stop  offset="0.79" style="stop-color:#C65700"/>
		<stop  offset="0.96" style="stop-color:#A63E00"/>
		<stop  offset="1" style="stop-color:#9D3700"/>
	</linearGradient>
	<path class="st2" d="M100.1,155.5c0,0,25.8,2.9,25.9,56.2c0,0,2.6,38.9-30.2,41.7c0,0-35.2,0.8-3.7-50.8
		C92.1,202.6,110.7,168.8,100.1,155.5z"/>
	
		<linearGradient id="SVGID_4_" gradientUnits="userSpaceOnUse" x1="169.9814" y1="715.4291" x2="233.7223" y2="715.4291" gradientTransform="matrix(1 0 0 1 -98.2 -623.31)">
		<stop  offset="0" style="stop-color:#9D3700"/>
		<stop  offset="1.000000e-02" style="stop-color:#A13800"/>
		<stop  offset="0.1" style="stop-color:#BE4200"/>
		<stop  offset="0.2" style="stop-color:#D64B00"/>
		<stop  offset="0.31" style="stop-color:#E85100"/>
		<stop  offset="0.44" style="stop-color:#F55600"/>
		<stop  offset="0.61" style="stop-color:#FD5800"/>
		<stop  offset="0.97" style="stop-color:#FF5900"/>
	</linearGradient>
	<path class="st3" d="M130.8,95.5c-2.5,3.6-5.4,6.9-8.8,9.8c-4.7,4-12.9,10.5-18.3,12.5c-5.4-2.1-13.6-8.6-18.3-12.5
		c-3.4-2.8-6.4-6.1-8.9-9.8C66.2,80,75.1,72,81.1,68.7c3-1.7,6.5-2.5,10-2.2c5.5,0.4,10.3,3.8,12.5,8.9c2.3-5,7.1-8.4,12.6-8.9
		c3.5-0.3,7,0.5,10.1,2.2C132.2,72,141.1,79.9,130.8,95.5L130.8,95.5z"/>
	
		<linearGradient id="SVGID_5_" gradientUnits="userSpaceOnUse" x1="201.8" y1="711.1127" x2="233.2358" y2="711.1127" gradientTransform="matrix(1 0 0 1 -98.2 -623.31)">
		<stop  offset="0" style="stop-color:#9D3700"/>
		<stop  offset="0.27" style="stop-color:#C34400"/>
		<stop  offset="0.56" style="stop-color:#E44F00"/>
		<stop  offset="0.8" style="stop-color:#F85600"/>
		<stop  offset="0.97" style="stop-color:#FF5900"/>
	</linearGradient>
	<path class="st4" d="M103.6,75.4c0,0,13.3,2.5,13.4,33.9c0,0,25.6-15.7,15.9-35C132.9,74.3,117,55.6,103.6,75.4z"/>
	<g id="_000000ff">
		
			<linearGradient id="SVGID_6_" gradientUnits="userSpaceOnUse" x1="238.4048" y1="781.0322" x2="312.6207" y2="781.0322" gradientTransform="matrix(1 0 0 1 -98.2 -623.31)">
			<stop  offset="0" style="stop-color:#FF5900"/>
			<stop  offset="0.34" style="stop-color:#FD5800"/>
			<stop  offset="0.52" style="stop-color:#F55500"/>
			<stop  offset="0.66" style="stop-color:#E75100"/>
			<stop  offset="0.79" style="stop-color:#D44A00"/>
			<stop  offset="0.9" style="stop-color:#BB4200"/>
			<stop  offset="1" style="stop-color:#9D3700"/>
		</linearGradient>
		<path class="st5" d="M165.1,154.6c1.9-2.1,3.9-4.1,5.9-6.1c4-0.1,8.1,0,12.2-0.1c2.1,2,4.1,4.1,6.1,6.2c6.3,0.1,12.6,0,19,0
			c3.4,0,6.4,3.1,6.1,6.5c-0.1,3.4-3.3,6-6.6,5.9c-20.2,0.1-40.3,0-60.5,0c-2.6,0.2-5.1-1.1-6.4-3.3c-1.5-2.9-0.5-6.5,2.3-8.1
			c1.9-1.2,4.1-0.9,6.2-0.9C154.6,154.6,159.9,154.7,165.1,154.6z"/>
		
			<linearGradient id="SVGID_7_" gradientUnits="userSpaceOnUse" x1="246.3555" y1="830.5724" x2="304.2444" y2="830.5724" gradientTransform="matrix(1 0 0 1 -98.2 -623.31)">
			<stop  offset="0" style="stop-color:#FF5900"/>
			<stop  offset="0.34" style="stop-color:#FD5800"/>
			<stop  offset="0.52" style="stop-color:#F55500"/>
			<stop  offset="0.66" style="stop-color:#E75100"/>
			<stop  offset="0.79" style="stop-color:#D44A00"/>
			<stop  offset="0.9" style="stop-color:#BB4200"/>
			<stop  offset="1" style="stop-color:#9D3700"/>
		</linearGradient>
		<path class="st6" d="M148.2,233.7c-0.1-20.2,0-40.4,0-60.5c19.3,0,38.5,0,57.8,0c0.1,19.9,0,39.8,0,59.6c0.2,4.4-3.7,8.9-8.3,8.5
			c-13.7,0-27.4,0-41.1,0C152.4,241.6,148.7,237.8,148.2,233.7"/>
	</g>
	<path class="st7" d="M188.9,229.2h-4.8v-37c0-1.9-0.8-2.8-2.5-2.8s-2.6,0.9-2.6,2.8v37h-4.8v-37c0-1.9-0.9-2.8-2.6-2.8
		c-1.7,0-2.6,0.9-2.5,2.8v37h-4.8v-37.1c-0.1-2,0.6-4,1.9-5.6c1.4-1.4,3.3-2.1,5.2-2s3.7,0.7,5.2,1.9c1.5-1.1,3.3-1.8,5.1-1.9
		c1.9-0.1,3.9,0.6,5.2,2c1.3,1.3,1.9,3.2,1.9,5.6L188.9,229.2z"/>
</g>
<path class="st8" d="M286.3,141.4c0,24.2-6.2,47-17,67c-24.2,44.3-71.6,74.5-126.1,74.5c-55.3,0-103.3-31-127.1-76.3
	C5.8,187,0,164.9,0,141.4C0,63.3,64.1,0,143.1,0S286.3,63.3,286.3,141.4z"/>
</svg>
